<?xml version="1.0" encoding="UTF-8" standalone="no"?>
<!-- Created with Inkscape (http://www.inkscape.org/) -->

<svg
   version="1.1"
   id="svg1"
   width="659.45215"
   height="749.44666"
   viewBox="0 0 659.45215 749.44666"
   sodipodi:docname="isotipo gmaestra.svg"
   inkscape:version="1.4.3 (0d15f75, 2025-12-25)"
   xmlns:inkscape="http://www.inkscape.org/namespaces/inkscape"
   xmlns:sodipodi="http://sodipodi.sourceforge.net/DTD/sodipodi-0.dtd"
   xmlns="http://www.w3.org/2000/svg"
   xmlns:svg="http://www.w3.org/2000/svg">
  <defs
     id="defs1" />
  <sodipodi:namedview
     id="namedview1"
     pagecolor="#ffffff"
     bordercolor="#000000"
     borderopacity="0.25"
     inkscape:showpageshadow="2"
     inkscape:pageopacity="0.0"
     inkscape:pagecheckerboard="0"
     inkscape:deskcolor="#d1d1d1"
     inkscape:zoom="0.78327121"
     inkscape:cx="298.10875"
     inkscape:cy="389.39258"
     inkscape:window-width="1920"
     inkscape:window-height="1051"
     inkscape:window-x="-9"
     inkscape:window-y="-9"
     inkscape:window-maximized="1"
     inkscape:current-layer="g1">
    <inkscape:page
       x="0"
       y="0"
       width="659.45215"
       height="749.44666"
       id="page9"
       margin="0"
       bleed="0" />
  </sodipodi:namedview>
  <g
     inkscape:groupmode="layer"
     inkscape:label="Image"
     id="g1"
     transform="translate(-210.655)">
    <g
       id="g2"
       transform="translate(-19.150452,-15.320362)">
      <path
         style="fill:#d1d1d1"
         d="M 537.74178,653.46648 C 478.86379,643.86595 429.65139,606.17993 402.62973,550 c -7.776,-16.16686 -11.8195,-28.0369 -15.10776,-44.35017 -6.49472,-32.22067 -4.89617,-64.3442 4.89467,-98.3602 4.60977,-16.0156 9.25912,-27.69893 18.61982,-46.78963 10.46072,-21.33415 21.97191,-40.32684 44.8503,-74 52.57474,-77.38121 58.43284,-86.59015 71.59969,-112.5548 12.34005,-24.3342 24.06745,-54.32458 32.53254,-83.1952 1.24979,-4.2625 2.56347,-7.75 2.91928,-7.75 0.35581,0 1.20361,2.1375 1.88401,4.75 2.58478,9.924611 10.62975,33.37725 16.8828,49.2166 13.1106,33.20991 29.92135,63.55596 58.18521,105.0334 52.77248,77.44406 62.73071,93.16437 75.06527,118.5 19.57955,40.2171 27.40228,70.96295 27.35144,107.5 -0.0267,19.15334 -1.42667,30.04255 -6.23689,48.51006 C 718.29445,584.7547 663.12165,638.19015 596,652.16949 c -12.70956,2.647 -45.5017,3.37705 -58.25822,1.29699 z m 53.1843,-20.97758 c 22.86179,-4.43004 45.3949,-14.51555 63.73133,-28.52526 C 662.32872,598.10248 682,579.30399 682,577.83421 c 0,-0.40811 -3.7125,1.94106 -8.25,5.22037 -9.60241,6.93979 -28.82685,16.70581 -40.14594,20.39414 -16.58774,5.40512 -26.6305,6.89596 -46.60406,6.91835 -19.96407,0.0224 -29.73416,-1.42573 -46.46359,-6.88677 -34.59158,-11.29183 -66.21684,-38.56958 -82.74238,-71.36783 -4.65096,-9.23074 -10.00526,-25.42781 -12.43365,-37.61247 -2.52111,-12.64986 -2.55651,-43.3709 -0.0645,-56 4.09108,-20.73317 11.99419,-42.32175 22.31693,-60.96219 7.11886,-12.85499 25.58084,-40.63994 26.74562,-40.25168 0.48958,0.1632 2.55791,5.00308 4.5963,10.75529 9.22072,26.02031 21.08848,43.0925 48.47943,69.73939 l 15.7075,15.28082 9.67918,-9.15019 c 31.31533,-29.60386 46.50823,-51.49278 55.32144,-79.70346 1.244,-3.98198 2.7334,-7.08988 3.30978,-6.90644 0.57638,0.18343 3.56045,3.82844 6.63126,8.10001 35.8577,49.87897 51.47882,102.80974 41.97012,142.21207 -2.40286,9.95704 -5.54925,17.21098 -11.36424,26.20003 -4.80453,7.42704 -16.12497,20.06074 -17.10771,19.09234 -0.33155,-0.32671 0.0989,-2.57671 0.95656,-5 9.71293,-27.44379 12.77489,-61.08375 7.95558,-87.40327 -2.97507,-16.24768 -11.51493,-39.02157 -20.69257,-55.18248 l -4.07733,-7.17975 -4.76047,7.92069 c -8.58379,14.28209 -15.10492,22.17287 -34.891,42.21927 -17.01722,17.2411 -19.36837,20.00119 -18.31448,21.5 0.665,0.94575 3.07959,4.77681 5.36573,8.51347 13.91663,22.74641 14.08637,49.55129 0.40038,63.22688 -5.65732,5.65302 -10.70063,7.82252 -19.28878,8.2975 -6.28658,0.3477 -7.98248,0.0507 -12.59348,-2.20522 -10.83733,-5.30221 -16.70151,-13.9337 -18.61032,-27.39251 -2.02376,-14.2694 2.14409,-30.20037 11.59501,-44.32018 l 5.42578,-8.10618 -11.19568,-10.64711 C 517.7342,417.05988 502.69393,399.27847 493.37435,383.3758 491.96393,380.96911 490.47099,379 490.05669,379 c -1.29681,0 -14.83814,28.06034 -18.09672,37.5 -12.42222,35.98555 -11.68235,72.8962 2.06913,103.22445 4.83135,10.65532 15.71078,26.06553 24.67118,34.94559 40.14034,39.78045 104.33327,47.51194 153.939,18.54063 38.03415,-22.21314 62.59324,-57.69901 68.29283,-98.67755 3.89447,-28.00018 -4.13134,-64.15653 -22.87079,-103.03312 -11.59841,-24.06189 -26.78224,-48.47829 -59.69956,-96 -21.70966,-31.34155 -35.44734,-52.43156 -45.91052,-70.48157 -8.2401,-14.21498 -22.57638,-43.22391 -26.57247,-53.76843 -1.30272,-3.4375 -2.64724,-6.25 -2.98782,-6.25 -0.34058,0 -1.42518,2.1375 -2.41022,4.75 -3.79403,10.06245 -14.67107,32.7577 -22.35672,46.64794 -10.95906,19.80626 -21.12281,35.9592 -39.70503,63.10206 -30.49885,44.54934 -44.21287,65.12661 -51.67663,77.53848 -28.34992,47.14447 -41.17844,84.14049 -42.46906,122.47599 -1.08342,32.18107 3.92482,55.80687 17.80342,83.98553 8.26114,16.77316 17.11866,29.45394 29.91611,42.82912 25.14773,26.28299 58.33578,43.26006 93.09758,47.6233 10.35053,1.29918 35.76637,0.48766 45.83568,-1.46352 z M 567.78321,508.4393 c 7.60409,-5.32612 7.6692,-20.80954 0.15219,-36.1893 -2.21775,-4.5375 -4.48122,-8.25 -5.02992,-8.25 -0.5487,0 -2.86667,3.89516 -5.15104,8.65591 -3.67503,7.65897 -4.20144,9.66087 -4.57057,17.38152 -0.2495,5.21855 0.0607,10.17369 0.77187,12.32845 2.19544,6.65227 8.83651,9.56922 13.82747,6.07342 z"
         id="path8" />
      <path
         style="fill:#b0afaf"
         d="M 538,653.04282 C 501.57173,647.41802 470.54884,631.9023 443.3133,605.68642 421.63259,584.8174 407.47853,563.73914 396.51884,536 c -9.06565,-22.94527 -12.97638,-46.60464 -12.23171,-74 1.11192,-40.90609 12.02989,-76.08721 38.01615,-122.5 8.30023,-14.82464 22.64343,-36.9206 47.00689,-72.41498 12.67908,-18.47176 25.95965,-38.0572 29.51237,-43.5232 C 525.5789,182.39614 542.22859,147.47171 556.65611,102.25 559.85847,92.2125 562.78515,84 563.15984,84 c 0.37469,0 0.99741,1.4625 1.38383,3.25 3.2787,15.16672 19.68051,58.62156 30.28997,80.25 13.68028,27.88864 23.62683,43.66055 76.30859,121 36.7915,54.01174 54.75163,89.44938 64.38688,127.04355 5.4447,21.24377 6.77669,33.70605 6.14104,57.45645 -0.59775,22.33453 -2.13113,32.32732 -7.72198,50.32309 -17.13805,55.16371 -58.04705,99.94255 -110.14882,120.5685 C 598.77421,653.7985 565.72387,657.3236 538,653.04282 Z m 47.63782,-19.58625 c 22.37555,-3.32245 47.02086,-13.42355 66.35315,-27.19542 C 660.87539,599.9321 684,578.00771 684,575.91347 c 0,-0.52097 -2.8125,1.24184 -6.25,3.91734 -28.54709,22.21902 -67.51529,33.60714 -103.44005,30.22947 -12.88326,-1.2113 -30.36627,-5.14159 -40.32509,-9.06534 -44.7552,-17.63343 -78.17046,-56.73656 -87.44336,-102.32776 -9.88837,-48.6173 2.7491,-97.29489 38.72615,-149.16718 9.97253,-14.37856 8.91795,-14.10395 12.73978,-3.31737 9.98802,28.18976 24.51312,48.98007 52.48424,75.12263 l 12.63098,11.80526 11.68868,-10.93415 c 13.48797,-12.61729 18.55842,-17.94294 26.35018,-27.67637 11.4764,-14.33627 19.7617,-29.19073 25.83115,-46.31189 2.01056,-5.67154 4.07222,-10.36514 4.58145,-10.43022 1.24536,-0.15915 17.19788,23.34022 24.1279,35.54238 19.31498,34.00918 29.36318,72.15913 26.35783,100.07264 -2.39715,22.26456 -9.39817,37.83064 -24.34427,54.12709 -5.91575,6.45023 -7.60613,6.87566 -5.28953,1.33125 2.66493,-6.37808 7.53655,-26.21607 9.04576,-36.83576 2.95534,-20.7955 1.56831,-45.36276 -3.60988,-63.9387 -3.94313,-14.14536 -13.1455,-35.6894 -19.94111,-46.68492 l -2.09806,-3.39473 -5.49013,8.76143 c -9.66092,15.41738 -16.2399,23.33998 -35.40476,42.6355 l -18.74626,18.87407 3.37168,4.69314 c 4.41901,6.15094 9.98444,18.04202 11.96235,25.55872 2.07103,7.8706 2.1352,21.74941 0.1324,28.63879 -5.36131,18.44227 -23.56233,27.75595 -39.64803,20.28837 -12.97912,-6.0254 -19,-16.92591 -19,-34.39856 0,-13.83394 4.23918,-26.42368 13.19749,-39.19464 l 4.25716,-6.06899 -16.52844,-16.13249 C 512.17938,410.40662 503.8369,400.44974 493.69972,383.62154 l -3.46053,-5.74463 -2.03445,3.31154 c -5.36223,8.72828 -13.65843,26.88923 -17.17372,37.59451 -6.63172,20.19584 -7.53993,26.12506 -7.46224,48.71704 0.0657,19.11378 0.20835,20.53173 3.21867,32 14.82067,56.46161 67.0066,93.99546 126.71255,91.13585 34.24991,-1.6404 63.55928,-15.03601 90.00457,-41.13585 29.75401,-29.36534 43.12957,-69.15479 36.97743,-110 -3.32907,-22.10228 -10.78058,-44.58474 -23.00279,-69.40328 C 684.36484,343.46656 671.00834,322.01013 637.34836,273.5 599.28783,218.64787 581.47372,188.26061 567.29317,154 c -1.935,-4.675 -3.73406,-8.8617 -3.99793,-9.30378 -0.26386,-0.44208 -3.27001,5.63303 -6.68033,13.50025 -13.12921,30.28758 -28.20236,56.62249 -54.80568,95.75316 -41.38273,60.86967 -47.04741,69.38162 -55.12856,82.83825 -10.36144,17.25375 -21.01385,38.04517 -27.05665,52.8093 -26.29582,64.24749 -19.91295,128.70787 17.81821,179.94564 12.0452,16.35701 30.32971,33.25169 47.05777,43.48084 17.37739,10.62622 42.20577,19.218 61.5,21.28188 9.30869,0.99573 30.2325,0.54758 39.63782,-0.84897 z M 569.27545,507.45182 c 5.15421,-5.15421 5.84237,-16.98318 1.6901,-29.05194 -1.88839,-5.4887 -7.0261,-15.39699 -7.98473,-15.39886 -0.97012,-0.002 -6.73228,11.47464 -8.53487,16.99898 -2.12808,6.52184 -2.4059,19.33907 -0.49854,23 3.90211,7.48957 10.40238,9.37748 15.32804,4.45182 z"
         id="path7" />
      <path
         style="fill:#908f8f"
         d="M 541,653.37277 C 515.78306,649.95881 492.33188,641.42069 472,628.25121 434.04282,603.66536 406.66287,568.05054 393.07623,525.59012 375.93418,472.01846 383.09588,414.6043 414.42823,354.4147 427.15048,329.97521 439.73444,310.2284 480.3309,251 491.07489,235.325 503.94426,215.87233 508.9295,207.77184 530.31131,173.02869 546.97181,135.60265 559.01949,95.25 560.86683,89.0625 562.6581,84 563.0001,84 c 0.34199,0 1.21688,2.3625 1.94421,5.25 5.26406,20.89848 18.97866,56.31273 31.61277,81.63145 14.03408,28.12427 24.56872,45.01545 61.5061,98.61855 42.71068,61.98126 59.19059,91.03305 70.90744,125 10.12068,29.33968 13.50893,50.24203 12.72478,78.5 -0.6795,24.48665 -3.69848,40.33199 -11.78733,61.86682 -21.00385,55.91824 -69.08363,100.23348 -124.31858,114.58473 -20.67459,5.37171 -43.59661,6.7633 -64.58949,3.92122 z m 46,-19.89311 c 21.95954,-3.49573 48.07851,-14.5676 66.5,-28.18945 8.86966,-6.55871 31.5,-28.42945 31.5,-30.4427 0,-0.56856 -2.1375,0.74965 -4.75,2.92935 -27.2124,22.70429 -68.41584,35.35204 -104.92609,32.20798 -36.38216,-3.13304 -67.0386,-17.59246 -92.25936,-43.51506 -15.15308,-15.57476 -25.25359,-31.8372 -31.55054,-50.79829 -15.281,-46.0135 -8.94757,-93.4877 18.99702,-142.3981 6.77436,-11.8569 23.36674,-36.72896 24.04785,-36.04784 0.20157,0.20157 1.99201,5.0365 3.97876,10.74428 8.97384,25.78117 23.83213,46.93073 50.90221,72.45513 l 13.67115,12.89053 5.1945,-4.89723 c 25.56002,-24.09724 36.13124,-36.08105 45.458,-51.53237 5.5474,-9.19018 11.69998,-22.62915 15.17016,-33.13589 1.22617,-3.7125 2.3573,-6.75 2.51362,-6.75 0.15631,0 3.66086,4.8375 7.78788,10.75 23.30725,33.39074 37.02445,64.96334 41.6833,95.94155 1.37871,9.16752 1.39579,30.16649 0.0308,37.87479 -2.78246,15.71308 -9.73588,30.03445 -20.96684,43.18366 -6.0605,7.09563 -8.72804,9.00018 -7.7034,5.5 0.28176,-0.9625 2.10991,-7.21393 4.06255,-13.89207 C 660.9243,500.68474 663,485.48075 663,467.58655 c 0,-17.71547 -2.27837,-31.69088 -7.94334,-48.72415 -4.00416,-12.03956 -15.90547,-37.66211 -18.48972,-39.80684 -0.99446,-0.82533 -2.32441,0.70207 -5.8229,6.6874 -8.2237,14.06937 -16.8712,24.52438 -35.97254,43.49157 l -18.86704,18.73453 3.90934,5.76547 c 9.06546,13.36972 13.1862,25.81364 13.1862,39.8201 0,12.73014 -2.75303,20.3584 -9.94172,27.54709 -4.6026,4.6026 -6.91993,6.0929 -11.58113,7.44795 -14.56484,4.23411 -28.52062,-2.66578 -35.28747,-17.44653 -1.95434,-4.26885 -2.61026,-7.61147 -2.95238,-15.04563 -0.69418,-15.08459 2.8485,-26.89654 12.3564,-41.19845 l 4.61725,-6.94533 -20.958,-21.27412 C 510.94269,408.05316 507.1433,403.62727 499.17907,391.60663 l -9.11588,-13.75887 -2.06065,3.32612 c -1.13335,1.82937 -4.709,8.72612 -7.94589,15.32612 -19.60834,39.98131 -22.70054,79.27746 -9.15825,116.38423 11.68826,32.02659 41.30005,60.20842 75.1016,71.47491 15.03404,5.01104 23.09408,6.14699 43,6.06023 17.53075,-0.0764 19.1287,-0.24876 30.5,-3.28971 42.48263,-11.36083 80.42488,-45.07778 94.52264,-83.99648 6.41274,-17.70317 7.47147,-23.90302 7.45116,-43.63318 -0.0212,-20.54785 -1.66161,-30.4487 -8.68491,-52.41753 C 701.33856,371.26595 680.93446,335.05833 637.51108,273.5 603.50123,225.28658 578.8241,183.06954 566.9312,152.75361 c -1.88716,-4.81051 -3.67731,-8.74801 -3.97811,-8.75 -0.3008,-0.002 -2.52844,4.83389 -4.9503,10.74639 -6.00518,14.66042 -19.95794,42.01588 -29.45562,57.75 -9.25963,15.33975 -20.55912,32.37801 -48.08079,72.5 -40.10414,58.46512 -56.36497,88.0177 -67.36813,122.4355 -12.34196,38.60554 -12.86509,76.57625 -1.53773,111.61526 16.41952,50.79066 52.61484,89.435 100.43948,107.23532 8.40549,3.12852 23.89746,6.96018 32.5,8.03828 8.3131,1.04183 33.83571,0.53456 42.5,-0.8447 z M 569.46318,507.62773 c 4.54505,-4.54505 5.74683,-14.56199 3.00843,-25.07543 C 570.86086,476.36824 564.33339,463 562.92457,463 c -0.45523,0 -2.64778,3.7125 -4.87232,8.25 -7.21065,14.70788 -7.77753,29.75199 -1.36281,36.16671 3.47706,3.47706 9.4097,3.57506 12.77374,0.21102 z"
         id="path6" />
      <path
         style="fill:#6f6f6f"
         d="M 546,653.95078 C 523.97757,651.20548 505.39696,645.72642 487.25563,636.6282 424.58781,605.19911 384,538.52152 384,467 c 0,-38.5205 12.87671,-81.96156 36.90405,-124.5 10.66679,-18.88469 21.39913,-35.47872 49.38949,-76.36463 36.00862,-52.59828 44.64701,-66.39925 57.66997,-92.13537 12.28728,-24.28225 26.55776,-60.8018 32.54687,-83.290592 0.99464,-3.734825 2.12259,-6.434825 2.50655,-6 0.38396,0.434826 2.36604,6.415592 4.40461,13.290592 5.50051,18.55017 15.80415,45.41967 24.31526,63.40855 13.93299,29.44846 25.54031,48.70687 57.31298,95.09145 38.20721,55.77831 46.60395,68.77314 58.25782,90.16006 34.20121,62.76527 42.95435,119.06978 27.07915,174.18656 -5.97119,20.73124 -17.07059,43.1122 -30.14649,60.78773 -8.787,11.87795 -29.54409,32.30266 -41.24624,40.58579 -16.55714,11.71961 -39.01033,22.42505 -56.4383,26.90918 -18.47127,4.75257 -44.49008,6.82419 -60.55572,4.82146 z m 41.5,-20.47372 c 32.46537,-5.14148 63.99322,-22.20392 87.84302,-47.53944 10.81736,-11.49124 12.69006,-14.6166 5.00983,-8.36097 -17.21821,14.02443 -38.98239,24.34172 -62.41159,29.58616 -9.15816,2.04998 -13.0219,2.33431 -31.44126,2.31377 -19.17255,-0.0214 -21.96569,-0.25292 -32.09717,-2.66078 -28.84867,-6.8562 -52.28086,-20.31654 -72.67497,-41.74726 C 456.35071,538.4015 443.86487,505.71048 443.89013,466 c 0.0248,-39.00759 13.06921,-75.08635 42.60987,-117.85223 3.85,-5.57363 7.28232,-10.13699 7.62737,-10.14082 0.34506,-0.004 2.10734,4.15555 3.91619,9.24305 9.46956,26.63376 23.65152,46.9998 50.31156,72.25 7.54921,7.15 14.15603,13.14947 14.68182,13.33215 1.90003,0.66017 37.39974,-36.10401 44.2558,-45.83215 7.85263,-11.14218 15.36434,-25.70824 20.09154,-38.95981 1.85602,-5.2029 3.77348,-9.59278 4.26102,-9.75529 1.46329,-0.48776 20.94367,29.49128 27.8164,42.80764 15.35963,29.76027 22.54117,56.03836 22.52114,82.40746 -0.0158,20.76337 -4.22933,35.66772 -14.37155,50.83552 -5.29248,7.91495 -16.53208,19.97473 -15.2777,16.39254 0.34126,-0.97457 1.95147,-6.37457 3.57824,-12 10.34021,-35.75681 10.03224,-68.49041 -0.95008,-100.98399 C 651.69925,408.09125 637.39786,378 636.07269,378 c -0.41988,0 -3.08765,3.80347 -5.92838,8.45216 -9.29837,15.21623 -17.24732,24.7797 -35.88885,43.17825 l -18.36984,18.13041 4.62644,7.15174 c 9.56608,14.78766 12.94183,26.12541 12.25064,41.14495 -0.35208,7.65063 -0.98164,10.74313 -3.15541,15.5 -5.32135,11.64472 -14.13434,17.66726 -26.10729,17.84094 -12.56261,0.18224 -22.81359,-6.97103 -27.68518,-19.3191 -1.77809,-4.50697 -2.21209,-7.69362 -2.258,-16.57935 -0.0491,-9.50361 0.33331,-12.1902 2.81101,-19.74917 1.78635,-5.44979 4.89748,-11.83419 8.25,-16.92993 2.96019,-4.49942 5.38217,-8.39694 5.38217,-8.66115 0,-0.26421 -8.70232,-9.3077 -19.3385,-20.09664 C 511.39545,408.52034 502.60286,397.91417 494.85189,384.86735 492.60799,381.09031 490.47596,378 490.11406,378 c -1.23712,0 -13.91288,25.48343 -17.53026,35.24298 -16.00638,43.18447 -12.96312,85.91496 8.57442,120.39342 10.32645,16.53115 27.94205,32.86291 46.15206,42.78847 27.59647,15.04174 65.58897,18.83733 96.47719,9.63842 42.47257,-12.64887 78.36566,-46.85599 92.0477,-87.72402 8.40226,-25.09739 8.59786,-47.93212 0.67534,-78.83927 -10.08662,-39.34969 -28.20958,-73.06361 -77.13859,-143.5 -41.48814,-59.72478 -61.93156,-95.14917 -75.48843,-130.80645 -0.9479,-2.49317 -1.34345,-1.87981 -5.90414,9.15525 C 545.7623,183.90927 528.76807,213.91908 502.11426,253 453.80932,323.82668 441.25163,343.58578 428.89801,368.20324 409.42507,407.0076 400.71194,446.33191 403.90551,481 411.42701,562.65041 471.82446,626.73356 549,634.94876 c 10.21181,1.08703 26.20299,0.47575 38.5,-1.4717 z M 566.56416,509.53764 c 6.7694,-2.82844 9.24911,-14.15581 5.90745,-26.98534 C 570.8686,476.39795 564.33597,463 562.93822,463 c -1.48205,0 -8.7569,15.80963 -9.97514,21.67784 -2.30476,11.10196 0.61434,22.35873 6.45788,24.90318 3.82611,1.66599 3.04068,1.67076 7.1432,-0.0434 z"
         id="path5" />
      <path
         style="fill:#4f4f4f"
         d="M 548.40152,653.97564 C 502.12728,649.52027 459.49007,626.824 429.15624,590.5 381.87331,533.87989 371.46027,459.18278 400.55949,385.36363 413.29274,353.06179 429.37462,325.63086 470.53855,266 c 15.1468,-21.94194 36.08302,-53.71359 43.27778,-65.67597 8.88699,-14.77596 23.06105,-43.53681 29.9756,-60.82403 5.09953,-12.74945 16.99826,-47.580359 18.44716,-54 0.55048,-2.439023 0.0138,-3.842339 7.26597,19 13.41008,42.23825 29.46156,76.0841 54.77618,115.5 4.41542,6.875 18.69469,28.025 31.73171,47 35.32293,51.41152 44.47717,66.03636 57.12166,91.25771 13.15842,26.24648 21.29823,49.8942 26.07133,75.74229 2.86814,15.532 3.12624,49.64256 0.48427,64 -9.89647,53.78108 -38.13536,97.90479 -81.54028,127.40796 -31.28653,21.26606 -72.9488,32.11082 -109.74841,28.56768 z M 588.5,633.50207 c 32.65938,-5.63308 62.18583,-21.79226 86.8496,-47.53089 C 681.20732,579.85817 686,574.46935 686,573.99602 c 0,-0.47332 -4.03865,2.17219 -8.97478,5.87893 C 660.37058,592.38157 644.21976,600.19357 624.5,605.2809 610.38973,608.92109 601.96047,610 587.63081,610 560.57225,610 535.66615,603.5737 514.72858,591.18968 485.38496,573.83371 463.36969,547.92557 452.53613,518 c -5.66461,-15.64736 -7.66363,-27.06235 -8.23077,-47 -0.45599,-16.0305 -0.24092,-20.10184 1.61123,-30.5 4.59851,-25.81648 13.14309,-47.85506 28.4357,-73.3427 5.88519,-9.80863 18.12389,-27.71553 19.54123,-28.59149 0.4765,-0.29449 2.31487,3.62022 4.08527,8.69937 6.14933,17.64203 15.65384,34.15653 28.75951,49.97089 7.22824,8.72217 35.03965,35.76393 36.78183,35.76393 2.07666,0 37.88734,-37.36948 43.79159,-45.6978 7.31562,-10.31913 15.40265,-25.86145 20.1897,-38.8022 2.03456,-5.5 3.84449,-10.15292 4.02206,-10.33983 0.57792,-0.60832 9.42942,12.04356 17.72823,25.33983 14.59138,23.37816 24.86034,47.95286 29.87747,71.5 3.04575,14.29475 3.30263,40.75481 0.50482,52 -2.42493,9.74648 -9.13743,23.93466 -14.90282,31.5 -5.57404,7.31427 -13.35608,14.90751 -12.29836,12 2.81989,-7.75141 7.66375,-26.80942 9.1499,-36 2.38737,-14.76385 2.39728,-38.54387 0.0217,-52 -2.58362,-14.63427 -8.9913,-32.99111 -17.36584,-49.75 -4.05388,-8.1125 -7.73967,-14.75 -8.19065,-14.75 -0.45098,0 -2.71217,3.18506 -5.02486,7.0779 -8.0594,13.56598 -19.39094,27.22021 -37.32502,44.97574 l -17.98542,17.80635 3.64535,5.49195 c 9.73509,14.66653 14.27472,29.27115 13.37849,43.0405 -1.32863,20.41288 -12.32891,32.61913 -29.54232,32.7811 -31.2041,0.29361 -40.40166,-41.50584 -16.57761,-75.33899 l 4.28053,-6.07889 -13.61688,-13.12783 C 518.37549,416.40212 507.15118,403.49233 498.2615,389.75 494.08102,383.2875 490.34347,378 489.95583,378 c -1.51966,0 -15.01647,28.15272 -18.88292,39.38752 -6.62148,19.24009 -8.39092,29.44833 -8.42621,48.61248 -0.033,17.93789 0.84546,24.25334 5.49461,39.5 13.1194,43.02446 51.40392,76.08529 97.23968,83.97191 11.46963,1.9735 32.84665,1.965 44.23802,-0.0176 26.15411,-4.55192 50.88516,-17.42892 71.53004,-37.24438 24.11983,-23.15079 37.30643,-49.4693 40.89048,-81.61139 2.85647,-25.61699 -5.95539,-63.27532 -23.01361,-98.35089 -12.64099,-25.99275 -26.84074,-49.11075 -55.90771,-91.02095 -22.56216,-32.53124 -36.55702,-53.68074 -46.13896,-69.72672 -9.43935,-15.8072 -22.98961,-42.0198 -27.91458,-54 -1.80881,-4.4 -3.93628,-9.57238 -4.7277,-11.49417 l -1.43896,-3.49417 -5.43148,12.84016 c -15.5746,36.81879 -29.35285,59.98463 -75.2272,126.48207 -52.90207,76.6845 -71.56879,115.75437 -77.71842,162.66636 -13.27853,101.29436 66.10448,194.31011 162.97909,190.96812 6.6,-0.22769 16.05,-1.11252 21,-1.9663 z m -18.79655,-125.6932 c 4.22188,-3.96625 5.51079,-14.3959 3.08031,-24.92533 C 571.24861,476.2329 564.82173,463.5 563,463.5 c -1.97473,0 -8.47177,13.29863 -9.98828,20.44478 -1.51479,7.13801 -0.89404,16.44832 1.39132,20.86772 3.20651,6.20071 10.39173,7.60784 15.30041,2.99637 z"
         id="path4" />
      <path
         style="fill:#2e2e2e"
         d="M 534.5,651.98337 C 477.6259,641.7747 428.5102,603.51646 402.93243,549.5 376.25445,493.16004 378.37014,430.71631 409.14925,366.01333 421.78751,339.44552 433.87015,319.78854 469.39553,268 c 34.36893,-50.10269 44.24571,-65.74115 57.15706,-90.5 12.25236,-23.49516 25.67171,-57.12262 33.02636,-82.760541 1.53998,-5.368298 3.10059,-9.418298 3.46803,-9 0.36743,0.418297 2.3376,6.385541 4.37814,13.260541 7.09734,23.91231 18.01275,51.08784 30.12473,75 13.09457,25.85204 20.34637,37.24138 72.58589,114 27.0445,39.7381 40.85113,63.58351 52.15971,90.08502 9.61348,22.52905 16.38515,48.21142 18.66019,70.77093 3.54926,35.1948 -3.44951,72.47396 -19.56044,104.18931 -25.76789,50.72565 -71.16143,86.62687 -123.8952,97.98728 -14.90195,3.21031 -47.65783,3.70468 -63,0.95083 z m 57.06465,-18.89181 c 26.99095,-5.50803 52.80408,-18.3354 72.79794,-36.17563 7.44371,-6.64191 20.82421,-20.97633 21.51507,-23.04892 0.21963,-0.65889 -2.92272,1.40135 -6.98299,4.57829 -58.5357,45.80103 -142.22643,41.31301 -193.93971,-10.40026 C 464.97072,548.0608 453.24083,526.32079 446.89213,497.5 c -2.95451,-13.41241 -3.62235,-38.67823 -1.41415,-53.5 4.92046,-33.02677 19.55326,-65.74867 45.31405,-101.33137 l 3.49776,-4.83136 4.30452,11.63713 c 9.17747,24.81099 19.12057,39.27672 44.5239,64.7756 10.27385,10.3125 19.2398,18.75 19.92432,18.75 1.59628,0 15.46931,-13.20077 29.09731,-27.68731 16.93485,-18.00172 28.33734,-36.46044 35.89875,-58.1141 1.76084,-5.04253 3.56105,-8.94602 4.00048,-8.67444 1.18388,0.73167 15.82505,22.65438 21.85248,32.72043 11.21277,18.72579 21.09574,44.06353 25.2867,64.8295 3.19977,15.85471 3.17433,40.52371 -0.0541,52.42592 -3.91415,14.43035 -10.95839,26.90443 -21.58641,38.22561 l -5.42083,5.77439 2.47948,-8 c 8.12239,-26.20675 11.03024,-51.7615 8.3665,-73.52623 -1.61435,-13.19046 -5.46011,-27.80318 -10.98079,-41.72371 C 646.89875,396.43219 637.39284,378 635.86574,378 c -0.4508,0 -1.57168,1.2375 -2.49085,2.75 -12.34649,20.3163 -19.24092,28.80707 -40.7933,50.23863 C 583.46171,440.05738 576,447.77466 576,448.13814 c 0,0.36349 1.63988,3.0686 3.64418,6.01137 18.88484,27.72722 17.07688,61.83746 -3.8298,72.2557 -10.30022,5.13282 -24.45392,2.8014 -32.63021,-5.37488 C 537.09062,514.93677 533,503.58729 533,492.77418 c 0,-11.51577 6.58748,-29.73403 14.4847,-40.0587 l 3.65962,-4.78451 -12.24485,-11.71549 C 520.91298,419.0066 507.79981,404.04885 498.82157,390.5 c -4.37354,-6.6 -8.2904,-12.12261 -8.70414,-12.27247 -0.41374,-0.14986 -3.26837,4.35014 -6.34363,10 -21.29575,39.12455 -26.95147,77.86363 -16.69858,114.37745 8.92971,31.80154 30.88898,58.58946 60.88916,74.27814 30.64823,16.02758 67.74562,18.98843 100.48436,8.01994 40.44169,-13.54921 75.31625,-48.05035 87.89681,-86.95564 6.33169,-19.58072 7.89696,-41.92714 4.31053,-61.53878 -8.40572,-45.9649 -26.78894,-82.41789 -80.64181,-159.90864 -21.46849,-30.89174 -35.34027,-52.05991 -45.21661,-69 -9.30763,-15.96462 -23.32881,-43.98024 -27.8998,-55.74639 -1.86882,-4.81051 -3.63224,-8.74801 -3.9187,-8.75 -0.28646,-0.002 -2.71413,5.28389 -5.39482,11.74639 -6.68905,16.1257 -20.44096,42.84384 -31.01085,60.25 -8.32948,13.71672 -24.17473,37.46428 -51.37724,77 -51.1194,74.29617 -70.09504,118.63505 -71.91818,168.04557 -1.1295,30.61176 4.48542,56.56881 18.26885,84.45443 8.59896,17.39676 17.39156,29.47314 32.43314,44.54591 26.84789,26.90357 58.62897,42.31693 95.51994,46.32578 9.04885,0.98332 32.23035,-0.27324 42.06465,-2.28013 z M 568.85652,508.46727 c 4.19287,-3.52806 5.47168,-8.18281 4.90188,-17.84236 -0.52726,-8.93824 -2.94931,-16.38071 -7.84121,-24.09444 l -3.08966,-4.87188 -2.90714,4.92071 c -4.94916,8.37705 -7.11023,15.31271 -7.60922,24.4207 -0.41004,7.48447 -0.18763,9.03723 1.86158,12.9966 3.71949,7.18662 9.40048,8.91627 14.68377,4.47067 z"
         id="path3" />
      <path
         style="fill:#000000"
         d="M 539.18866,652.42847 C 520.04364,649.63911 503.40995,644.24655 485,634.86078 469.88162,627.15311 457.0354,617.87507 443.67639,605.01526 421.72108,583.88036 407.46266,562.33597 396.67739,534 376.82924,481.85327 381.65577,422.6397 410.58567,363.36803 422.88863,338.1617 436.97137,315.55728 474.0503,261.5 c 13.20394,-19.25 28.58985,-42.425 34.1909,-51.5 21.99444,-35.63609 38.26022,-71.67233 50.30104,-111.44011 l 4.22076,-13.940111 2.6907,8.940111 c 7.80416,25.93 18.31798,53.07828 29.02234,74.94011 13.40761,27.38276 21.90557,40.86594 75.63162,120 22.50465,33.1475 32.4965,49.51744 43.03163,70.5 28.09394,55.954 35.21162,107.04732 21.94515,157.53031 -11.38297,43.31569 -39.87464,83.37762 -77.33572,108.74117 -8.54095,5.78277 -28.03795,15.70975 -37.50069,19.09363 -24.3828,8.71931 -55.3882,11.80357 -81.05937,8.06336 z m 53.59315,-19.29116 c 26.43186,-5.67904 49.58072,-17.23218 71.1358,-35.50247 11.8364,-10.03264 30.55433,-31.97241 19.83239,-23.24605 -20.91354,17.02108 -43.26394,27.64566 -69.02224,32.81071 -14.63109,2.93382 -40.65665,3.1473 -53.72776,0.44071 -21.50631,-4.45323 -37.16453,-10.65887 -52.8,-20.92559 C 468.64062,560.73872 446.68093,521.6059 444.38813,473 c -1.33384,-28.27665 5.17281,-56.67809 19.6612,-85.82079 7.91387,-15.91838 12.47462,-23.6142 22.80457,-38.48049 l 7.50534,-10.80127 3.65183,10.30127 c 9.13202,25.76006 21.23034,43.39383 47.41309,69.10638 8.29171,8.1428 15.76697,15.19456 16.61167,15.67056 1.16891,0.6587 5.0236,-2.45477 16.13421,-13.03175 27.02193,-25.72409 40.1768,-44.88499 50.36878,-73.3653 l 3.19261,-8.92139 11.19057,16.85956 c 39.85077,60.03858 49.56015,117.33628 26.5084,156.43334 -3.64143,6.17607 -15.3542,20.45942 -16.13612,19.67749 -0.27542,-0.27542 0.64929,-4.0168 2.05491,-8.31419 5.97943,-18.28075 8.60032,-34.67514 8.63129,-53.99106 0.0329,-20.50286 -2.96297,-36.34371 -10.63965,-56.25852 -4.53273,-11.75878 -14.69538,-32.28327 -16.88461,-34.10017 -0.91181,-0.75674 -1.94621,0.21924 -3.98189,3.75701 -9.9148,17.23081 -20.32473,29.93765 -41.7783,50.99654 l -15.50241,15.21721 5.29058,8.04155 c 17.93895,27.26675 15.68879,59.36407 -4.93129,70.34225 -3.22923,1.71924 -5.78039,2.16021 -12.55291,2.16977 -7.45525,0.0105 -9.06697,-0.32131 -13.11285,-2.69978 -5.67034,-3.33345 -10.51194,-8.72274 -13.23973,-14.73741 -2.85008,-6.28436 -3.52476,-24.0776 -1.24969,-32.95807 1.89015,-7.37799 7.35651,-18.62772 12.37011,-25.45761 l 3.57422,-4.86906 -17.93822,-17.63304 C 513.73043,410.79432 505.55792,401.1323 496.57456,386.59128 493.31557,381.31608 490.34035,377 489.96297,377 c -1.50528,0 -17.20303,33.16649 -20.42615,43.15672 -6.10342,18.91789 -7.04073,25.18893 -7.00147,46.84328 0.0301,16.60929 0.35703,20.78096 2.20537,28.14104 7.50785,29.8963 21.5047,52.08755 43.71667,69.31042 20.14687,15.62161 40.59886,23.84515 66.20238,26.61931 60.52074,6.55746 122.15489,-33.97298 141.75016,-93.21452 6.49557,-19.63777 7.99425,-36.54741 5.0277,-56.72791 C 714.48217,393.81253 693.32049,351.63653 634.82188,268.5 602.71886,222.87611 579.34881,182.63286 567.3455,152.30557 565.31981,147.18751 563.36582,143 563.0033,143 c -0.36252,0 -3.08764,5.7375 -6.05583,12.75 -12.63868,29.85959 -28.63263,57.86928 -55.8167,97.75 -49.7674,73.01188 -58.50277,86.71897 -71.2115,111.74135 -11.66594,22.96924 -20.72133,48.50443 -24.56077,69.25865 -2.85719,15.4446 -2.5804,51.14954 0.50743,65.45848 9.96856,46.19405 35.57561,85.03473 72.48019,109.93769 8.22863,5.55261 23.169,13.25425 32.6098,16.81007 7.49697,2.8237 24.48088,7.04839 33.37735,8.30252 10.32821,1.45596 37.92292,0.39004 48.44854,-1.87145 z M 568.64204,509.22776 c 7.92597,-6.39306 7.84701,-21.55557 -0.19776,-37.97776 -2.49223,-5.0875 -4.85251,-9.25 -5.24508,-9.25 -0.99354,0 -5.3229,7.42179 -8.16663,14 -2.83767,6.56419 -3.95332,20.68007 -2.08247,26.34879 2.41665,7.32252 10.66122,10.93674 15.69194,6.87897 z"
         id="path2" />
    </g>
  </g>
</svg>
