<?xml version="1.0" encoding="UTF-8" standalone="no"?>
<!-- Created with Inkscape (http://www.inkscape.org/) -->

<svg
   width="210mm"
   height="297mm"
   viewBox="0 0 210 297"
   version="1.1"
   id="svg1"
   xml:space="preserve"
   inkscape:version="1.4.3 (0d15f75, 2025-12-25)"
   sodipodi:docname="logo vector gmaestra.svg"
   xmlns:inkscape="http://www.inkscape.org/namespaces/inkscape"
   xmlns:sodipodi="http://sodipodi.sourceforge.net/DTD/sodipodi-0.dtd"
   xmlns="http://www.w3.org/2000/svg"
   xmlns:svg="http://www.w3.org/2000/svg"><sodipodi:namedview
     id="namedview1"
     pagecolor="#ffffff"
     bordercolor="#000000"
     borderopacity="0.25"
     inkscape:showpageshadow="2"
     inkscape:pageopacity="0.0"
     inkscape:pagecheckerboard="0"
     inkscape:deskcolor="#d1d1d1"
     inkscape:document-units="mm"
     inkscape:zoom="0.52473017"
     inkscape:cx="86.711232"
     inkscape:cy="424.02746"
     inkscape:window-width="1920"
     inkscape:window-height="1051"
     inkscape:window-x="-9"
     inkscape:window-y="-9"
     inkscape:window-maximized="1"
     inkscape:current-layer="layer1" /><defs
     id="defs1" /><g
     inkscape:label="Capa 1"
     inkscape:groupmode="layer"
     id="layer1"><path
       style="fill:#050505"
       d="m 56.533616,230.56569 c -1.156865,-0.27381 -2.10454,-1.19627 -2.429037,-2.3644 -0.144488,-0.52013 -0.264125,-3.80319 -0.26586,-7.29569 l -0.0032,-6.34999 -1.677804,3.83645 c -0.922793,2.11006 -2.440084,5.58979 -3.371758,7.73274 l -1.693954,3.89628 -0.926042,10e-4 -0.926042,0.001 -1.579308,-3.36817 c -0.86862,-1.85249 -2.497556,-5.37413 -3.619859,-7.82587 -1.122302,-2.45174 -2.108254,-4.52541 -2.191004,-4.60816 -0.08275,-0.0827 -0.150454,3.44126 -0.150454,7.83114 v 7.9816 h -1.058288 -1.058333 v -10.31864 -10.31875 h 2.06553 2.06553 l 3.08033,6.68073 c 1.694181,3.6744 3.273149,7.14288 3.508818,7.70773 0.235669,0.56486 0.520068,0.92204 0.631998,0.79375 0.205769,-0.23584 1.682058,-3.46623 5.003638,-10.94888 l 1.820472,-4.10104 1.89205,-0.0777 1.89205,-0.0777 v 9.01592 c 0,9.82454 0.100754,10.60063 1.442411,11.11073 0.416208,0.15824 0.674256,0.46137 0.674256,0.79206 0,0.45812 -0.16289,0.5318 -1.124479,0.50864 -0.618464,-0.0149 -1.519211,-0.12052 -2.001661,-0.23471 z m 48.144494,-0.49738 c -2.87593,-1.01688 -3.79827,-2.2846 -3.68266,-5.06166 0.0648,-1.55648 0.12813,-1.72782 0.66691,-1.80434 0.42872,-0.0609 0.59694,0.0502 0.60112,0.39687 0.008,0.70252 0.99364,2.76436 1.66426,3.48313 1.87063,2.00494 6.00679,2.34614 7.71639,0.63654 0.52314,-0.52314 0.6677,-0.93507 0.6677,-1.90263 0,-1.68036 -0.83678,-2.43365 -5.02024,-4.51932 -3.95474,-1.97166 -4.89348,-2.65195 -5.62174,-4.07401 -0.71979,-1.40551 -0.75552,-3.62578 -0.0808,-5.01807 0.98759,-2.03777 3.98256,-3.25378 7.37693,-2.99518 3.68924,0.28107 5.30657,1.21527 5.61028,3.2406 0.0973,0.64863 0.0984,1.70254 0.002,2.34203 -0.23577,1.57228 -0.94347,1.40068 -1.58538,-0.38443 -0.9014,-2.50669 -2.17872,-3.47152 -4.62541,-3.4938 -1.88474,-0.0172 -3.11596,0.59784 -3.62212,1.80928 -0.83711,2.00348 0.29703,3.24241 5.0524,5.51917 3.94159,1.88715 4.88771,2.59633 5.69866,4.27152 0.45533,0.94059 0.55636,1.53319 0.46848,2.74803 -0.15501,2.143 -1.04443,3.43265 -3.0448,4.4149 -1.32893,0.65255 -1.88981,0.76295 -4.18068,0.82286 -2.0538,0.0537 -2.96268,-0.0428 -4.06184,-0.43149 z M 61.069808,229.703 c 0.07906,-0.1819 1.798051,-4.25979 3.819973,-9.06198 5.230949,-12.42382 4.632993,-11.24479 5.702909,-11.24479 0.499687,0 1.026748,0.14883 1.171247,0.33073 0.144499,0.1819 1.95315,4.25979 4.019224,9.06198 2.066073,4.80219 3.933184,9.00445 4.149133,9.33837 0.21595,0.33392 0.684066,0.71792 1.040257,0.85335 0.356192,0.13542 0.647621,0.42776 0.647621,0.64965 0,0.6755 -3.05301,0.54482 -4.48293,-0.19189 -1.180398,-0.60816 -1.675113,-1.29761 -2.657929,-3.70417 l -0.513252,-1.25677 h -3.978153 c -2.187984,0 -4.067449,-0.0139 -4.17659,-0.031 -0.10914,-0.017 -0.727643,1.23311 -1.37445,2.77812 l -1.176013,2.80911 h -1.167399 c -0.834197,0 -1.126369,-0.0944 -1.023648,-0.33073 z m 11.668948,-8.06979 c -0.232018,-0.5457 -0.977756,-2.33076 -1.657196,-3.9668 -0.679441,-1.63604 -1.294877,-2.97346 -1.367638,-2.97205 -0.141325,0.003 -3.179796,7.39866 -3.176788,7.7326 9.84e-4,0.10914 1.491667,0.19844 3.312631,0.19844 h 3.310842 z m 10.998083,-0.4458 c 0,-5.01459 -0.11007,-9.13583 -0.25413,-9.51472 -0.16632,-0.43745 -0.55487,-0.74634 -1.124478,-0.89394 -0.606793,-0.15724 -0.870351,-0.38068 -0.870351,-0.73788 0,-0.49108 0.272649,-0.51529 6.568979,-0.58316 4.0181,-0.0433 6.97225,0.0378 7.60748,0.20883 1.38815,0.37378 1.87385,1.19553 2.0346,3.44225 0.11996,1.67649 0.0867,1.8436 -0.36665,1.84275 -0.34056,-6.4e-4 -0.70821,-0.44089 -1.16003,-1.38906 -0.90381,-1.8967 -1.50601,-2.14554 -5.49011,-2.26853 l -3.24114,-0.10005 v 3.59908 3.59908 h 4.49791 4.49792 v 0.87694 0.87693 l -4.49792,-0.11702 -4.49791,-0.11703 v 4.30819 4.3082 l 3.54612,-0.17007 c 1.95037,-0.0935 3.88514,-0.29852 4.29948,-0.45552 1.02898,-0.38988 1.93979,-1.27092 2.3785,-2.30072 0.22015,-0.51675 0.5567,-0.8599 0.84339,-0.8599 0.42615,0 0.45701,0.16233 0.2892,1.52136 -0.24054,1.94796 -0.59023,2.81828 -1.3447,3.34673 -0.51498,0.36071 -1.57771,0.42358 -7.16045,0.42358 h -6.55571 z m 40.157071,-0.54628 0.0727,-9.39282 -1.52791,4.1e-4 c -2.04972,5.6e-4 -3.21471,0.61281 -3.90091,2.05011 -0.77186,1.61673 -1.46346,1.54161 -1.46346,-0.15895 0,-1.64144 0.43203,-2.87352 1.15231,-3.28621 0.40201,-0.23034 2.78548,-0.35063 8.17425,-0.41253 l 7.60677,-0.0874 v 1.06652 1.06652 l -3.175,-0.15963 -3.175,-0.15964 v 9.4331 9.4331 l -1.91823,1.1e-4 -1.91823,1.1e-4 z m 13.54944,0.46291 c -0.004,-9.71225 -0.0676,-10.18272 -1.3913,-10.33632 -0.5734,-0.0665 -0.72147,-0.2211 -0.72147,-0.75312 v -0.6694 l 5.88698,0.0941 c 5.69999,0.0911 5.9341,0.11612 7.37049,0.7873 1.69062,0.78998 2.69275,1.94868 3.14053,3.6312 0.73515,2.76231 -0.59673,5.35515 -3.39241,6.60418 -0.63228,0.28249 -1.0214,0.59286 -0.86469,0.68971 0.1567,0.0968 1.1384,1.62891 2.18155,3.40458 1.90484,3.24246 3.07591,4.68371 3.80568,4.68371 0.21599,0 0.3927,0.17859 0.3927,0.39687 0,0.60713 -3.74901,0.55555 -4.80839,-0.0661 -0.75795,-0.4448 -1.79811,-1.96383 -4.16528,-6.08294 -1.12428,-1.95636 -1.64194,-2.32931 -2.97181,-2.14107 -0.62062,0.0878 -0.62241,0.0992 -0.69493,4.38755 l -0.0727,4.29948 h -1.84553 -1.84552 z m 8.30336,-2.0421 c 1.43476,-0.69428 2.01731,-1.76637 2.01731,-3.71259 0,-2.88175 -1.31769,-4.09176 -4.69438,-4.31079 l -1.91823,-0.12442 v 4.43028 4.43027 l 1.78594,-0.10876 c 0.99047,-0.0603 2.24178,-0.32934 2.80936,-0.60399 z m 8.67797,10.76482 c 0.0485,-0.11383 1.02597,-2.40578 2.17214,-5.09323 1.14616,-2.68744 3.07112,-7.20798 4.27767,-10.04563 l 2.19374,-5.15938 0.90434,-0.0795 c 0.51234,-0.0451 1.02616,0.0696 1.18538,0.26458 0.15457,0.18926 1.53669,3.26114 3.07137,6.8264 5.19122,12.05989 5.03267,11.73101 5.93095,12.30312 1.46587,0.93362 1.30373,1.19063 -0.75113,1.19063 -2.88985,0 -3.95274,-0.77901 -5.14427,-3.77031 l -0.7114,-1.78594 h -4.28375 -4.28376 l -1.14092,2.77812 -1.14091,2.77813 h -1.18383 c -0.6511,0 -1.14413,-0.0931 -1.09562,-0.20697 z m 12.12673,-7.42692 c 0,-0.19264 -3.1378,-7.72175 -3.29718,-7.91154 -0.0656,-0.0781 -2.89526,6.6559 -3.16907,7.54178 l -0.18399,0.59532 h 3.32512 c 1.82882,0 3.32512,-0.1015 3.32512,-0.22556 z M 60.768519,201.98129 c -2.555803,-0.66955 -4.301237,-1.64384 -6.324663,-3.5304 -4.602327,-4.29101 -5.664846,-12.39898 -2.450658,-18.70072 0.843586,-1.65393 3.806828,-4.51626 5.554507,-5.36534 3.928806,-1.90876 10.689282,-1.9887 14.320979,-0.16935 2.539712,1.27231 3.556099,3.01049 3.707947,6.34117 l 0.06634,1.45521 h -0.897697 c -0.841162,0 -0.93436,-0.0917 -1.479869,-1.45521 -1.964537,-4.91059 -7.820993,-6.76012 -12.360102,-3.90344 -2.605996,1.64007 -4.10068,5.12841 -4.336717,10.12115 -0.290272,6.13996 1.577204,10.51983 5.340124,12.52442 1.203388,0.64107 1.585881,0.7045 4.233333,0.70203 2.053706,-0.002 3.144066,-0.11957 3.704167,-0.3997 l 0.79375,-0.39698 0.135721,-4.62739 c 0.148009,-5.04633 0.354241,-5.8351 1.778516,-6.80224 1.355144,-0.92019 2.308751,-1.19443 4.6342,-1.33273 l 2.315105,-0.13769 v 1.09504 c 0,1.02375 -0.04838,1.09503 -0.743181,1.09503 -0.408749,0 -0.974296,0.16876 -1.256771,0.37503 -0.470273,0.3434 -0.51945,0.77297 -0.583066,5.09323 -0.03821,2.59501 -0.123089,4.95944 -0.188618,5.2543 -0.161458,0.72651 -2.90676,2.09844 -5.538917,2.76799 -2.819898,0.71731 -7.679368,0.71572 -10.424434,-0.003 z m 29.84138,-0.0664 c -4.49522,-1.53274 -7.70846,-5.17773 -8.856375,-10.04639 -0.49603,-2.10382 -0.499972,-6.15677 -0.0082,-8.47736 1.10407,-5.2104 4.755779,-9.05265 9.638749,-10.1417 2.55381,-0.56958 6.89659,-0.38263 9.087367,0.39119 4.17904,1.47611 7.32847,4.99699 8.55308,9.56182 0.64158,2.3915 0.64751,6.94033 0.0123,9.45337 -1.17746,4.65857 -4.72403,8.26325 -9.303657,9.45609 -2.42895,0.63266 -6.97808,0.53442 -9.12324,-0.19702 z m 7.96049,-2.50671 c 3.303021,-1.67513 5.029421,-6.27123 4.646201,-12.36927 -0.36095,-5.74361 -1.88858,-9.15518 -4.889411,-10.91925 -1.02801,-0.60433 -1.53162,-0.72113 -3.08097,-0.71456 -2.87077,0.0122 -4.66749,1.18995 -6.04245,3.96089 -1.17591,2.36981 -1.35396,3.44355 -1.36009,8.20209 -0.005,3.91419 0.07,4.73827 0.57853,6.35 0.98767,3.13059 2.61212,5.16608 4.70735,5.89847 1.58133,0.55276 3.8869,0.37971 5.44084,-0.40837 z m 21.149771,-10.67633 v -12.99144 l -1.91823,0.18829 c -3.23078,0.31713 -4.09886,0.92354 -4.81587,3.36416 -0.29063,0.98926 -0.43702,1.14189 -1.16478,1.21438 -0.79902,0.0796 -0.83331,0.0425 -0.85588,-0.92605 -0.0883,-3.78871 0.27871,-4.83889 2.00789,-5.74564 1.01238,-0.53088 1.49774,-0.55847 11.17864,-0.63556 l 10.12032,-0.0806 v 1.55476 1.55475 l -4.36563,-0.11946 -4.36562,-0.11947 v 12.86665 12.86665 h -2.91042 -2.91042 z m 11.90625,12.88917 c 0,-0.0701 1.98414,-4.74902 4.4092,-10.39753 2.42506,-5.6485 5.1385,-11.9964 6.02986,-14.10645 l 1.62067,-3.83646 h 1.30353 1.30354 l 1.88553,4.36562 c 7.40133,17.13654 8.89308,20.53511 9.2581,21.09219 0.52243,0.79733 1.92343,1.6597 2.69843,1.66099 0.46477,7.7e-4 0.59531,0.15214 0.59531,0.69031 v 0.68933 l -3.10886,-0.094 c -2.8376,-0.0858 -3.21864,-0.15855 -4.36715,-0.83367 -1.39604,-0.82062 -2.28198,-2.14493 -3.37191,-5.04038 l -0.66146,-1.75719 -5.35781,-0.002 c -2.9468,-9.4e-4 -5.44429,-0.0315 -5.55,-0.0679 -0.1057,-0.0364 -0.92379,1.66026 -1.81798,3.77031 l -1.62579,3.83646 -1.6216,0.0788 c -0.89189,0.0433 -1.62161,0.0214 -1.62161,-0.0487 z m 16.32579,-10.54721 c -0.88309,-2.16361 -3.93867,-9.32756 -4.10568,-9.626 -0.154,-0.27518 -0.82291,1.01788 -2.23423,4.31896 -1.10793,2.59145 -2.09432,4.92008 -2.19199,5.17474 -0.16476,0.42959 0.14174,0.46302 4.24465,0.46302 3.4334,0 4.39206,-0.0739 4.28725,-0.33072 z m -43.84244,-31.61982 c -8.052601,-0.4618 -15.832011,-4.02893 -21.029617,-9.64283 -5.874014,-6.34448 -8.693369,-14.49316 -8.266009,-23.89097 0.173248,-3.80977 0.670116,-6.35058 2.069625,-10.58333 2.042891,-6.17863 4.944302,-11.33367 12.09752,-21.494066 6.12727,-8.70316 9.04032,-13.63864 11.831361,-20.04552 1.26063,-2.89379 3.85178,-10.23413 4.81,-13.62604 l 0.26161,-0.92604 0.19228,0.79375 c 1.19157,4.91903 3.93558,11.98258 7.04625,18.13826 2.56194,5.06979 5.20025,9.30832 9.54383,15.33244 6.37609,8.843016 9.05204,13.340916 11.49037,19.313676 2.41657,5.91945 3.47024,11.68748 3.20745,17.55823 -0.22904,5.11673 -1.09677,8.65485 -3.11652,12.70744 -5.46681,10.9691 -16.81152,17.12926 -30.13815,16.365 z m 5.87659,-4.06248 c 6.20741,-0.67108 11.29767,-3.01763 15.83883,-7.30154 2.19935,-2.07475 2.41502,-2.67431 0.35984,-1.00035 -4.35705,3.54888 -12.17724,5.62495 -18.44388,4.89641 -8.214201,-0.95495 -14.581681,-4.57287 -18.547641,-10.53852 -2.72175,-4.0941 -3.74759,-7.87162 -3.71369,-13.67523 0.0208,-3.55698 0.10794,-4.2852 0.84012,-7.01876 1.3425,-5.01223 3.81514,-10.06957 7.16019,-14.64488 l 1.33054,-1.81989 0.29322,1.15843 c 1.21513,4.80053 3.74096,8.93849 8.355621,13.68869 l 2.73522,2.81557 2.5486,-2.51354 c 4.59306,-4.52987 7.19403,-8.58918 8.29361,-12.94371 l 0.49581,-1.9635 1.44103,1.9635 c 1.93286,2.63365 3.14681,4.68735 4.70541,7.96033 2.5088,5.26837 3.31706,8.81728 3.12941,13.74066 -0.13585,3.56433 -0.69863,5.39001 -2.32588,7.54529 -1.05803,1.40134 -3.65133,3.68226 -3.9018,3.43178 -0.0701,-0.07 0.11484,-0.52056 0.41087,-1.00116 1.57312,-2.55397 2.36892,-10.13637 1.52944,-14.57258 -0.51741,-2.73426 -1.70311,-6.21349 -2.9863,-8.76279 l -0.91813,-1.82405 -0.89818,1.62053 c -1.6471,2.97177 -3.43778,5.10002 -7.09302,8.43011 l -1.80016,1.64003 0.80438,1.0058 c 0.44241,0.55319 1.13498,1.72018 1.53904,2.5933 0.62027,1.34035 0.73554,1.94086 0.74038,3.85721 0.005,2.06978 -0.0648,2.38379 -0.79502,3.56488 -1.6256,2.62934 -4.65676,3.56789 -7.25007,2.24488 -2.19022,-1.11737 -3.49144,-4.36195 -2.94295,-7.33823 0.32096,-1.74159 1.31692,-3.93483 2.33777,-5.14803 l 0.69117,-0.82141 -1.04467,-0.81796 c -3.521631,-2.75737 -6.996571,-6.86982 -8.443161,-9.99212 l -0.64215,-1.38603 -1.09667,2.36216 c -2.49083,5.36507 -3.28521,8.97648 -3.10423,14.1124 0.1068,3.03092 0.24415,3.94467 0.87459,5.8184 2.01583,5.99129 7.56178,11.02241 14.072681,12.76632 2.75628,0.73826 8.49769,0.79698 11.58177,0.11846 6.40398,-1.40892 12.16521,-5.53637 14.6247,-10.47739 1.65247,-3.31973 2.02312,-5.03098 2.03444,-9.3927 0.011,-4.24422 -0.29215,-6.08457 -1.74338,-10.58334 -2.0103,-6.23187 -4.86015,-11.18109 -14.01636,-24.341666 -1.31616,-1.89177 -3.17997,-4.74927 -4.1418,-6.35 -1.93588,-3.2218 -5.20515,-9.90112 -6.15141,-12.5677 -0.33566,-0.94589 -0.68476,-1.80682 -0.77579,-1.91318 -0.091,-0.10636 -0.50306,0.72708 -0.91564,1.85209 -2.10461,5.73881 -6.542441,13.7893 -11.483021,20.83088 -5.45723,7.777926 -7.8714,11.579416 -9.73667,15.331876 -3.339002,6.71725 -4.709946,11.87287 -4.71756,17.74104 -0.01885,14.52612 9.67868,25.79089 23.793331,27.63862 2.3752,0.31093 4.05432,0.30633 7.06722,-0.0194 z m -2.14649,-21.50558 c 0.75869,-1.24419 0.64362,-2.75434 -0.35668,-4.68064 -0.47294,-0.91076 -0.98638,-1.69754 -1.14098,-1.74841 -0.34412,-0.11322 -1.2928,1.7377 -1.72878,3.37297 -0.82227,3.08411 1.73329,5.50474 3.22644,3.05608 z"
       id="path1" /></g></svg>
