<?xml version="1.0" encoding="UTF-8" standalone="no"?>
<!-- Created with Inkscape (http://www.inkscape.org/) -->

<svg
   version="1.1"
   id="svg1"
   width="1207"
   height="752"
   viewBox="0 0 1207 752"
   sodipodi:docname="gota maestra palabra.svg"
   inkscape:version="1.4.3 (0d15f75, 2025-12-25)"
   xmlns:inkscape="http://www.inkscape.org/namespaces/inkscape"
   xmlns:sodipodi="http://sodipodi.sourceforge.net/DTD/sodipodi-0.dtd"
   xmlns="http://www.w3.org/2000/svg"
   xmlns:svg="http://www.w3.org/2000/svg">
  <defs
     id="defs1" />
  <sodipodi:namedview
     id="namedview1"
     pagecolor="#ffffff"
     bordercolor="#000000"
     borderopacity="0.25"
     inkscape:showpageshadow="2"
     inkscape:pageopacity="0.0"
     inkscape:pagecheckerboard="0"
     inkscape:deskcolor="#d1d1d1"
     inkscape:zoom="0.78327121"
     inkscape:cx="541.95788"
     inkscape:cy="450.03569"
     inkscape:window-width="1920"
     inkscape:window-height="1051"
     inkscape:window-x="1271"
     inkscape:window-y="186"
     inkscape:window-maximized="1"
     inkscape:current-layer="g1" />
  <g
     inkscape:groupmode="layer"
     inkscape:label="Image"
     id="g1">
    <path
       style="fill:#040404"
       d="m 356.5,553.34228 c -12.11345,-2.8495 -19.04041,-8.09213 -22.70692,-17.18559 -2.22132,-5.50921 -2.29398,-6.79081 -2.78693,-49.15669 -0.27838,-23.925 -0.7886,-43.05 -1.13382,-42.5 -0.56773,0.90449 -8.42673,19.34026 -34.42299,80.75 -8.74007,20.64625 -8.79941,20.74986 -11.86667,20.72175 l -3.08267,-0.0283 -21,-47.53127 c -11.55,-26.1422 -21.85182,-49.76516 -22.89294,-52.49548 -1.04111,-2.73031 -2.06173,-4.79541 -2.26803,-4.58911 -0.20631,0.20631 -0.37554,23.61698 -0.37606,52.02373 L 233.96201,545 H 228.481 223 v -63.375 l 0,-63.375 3.125,-0.625 c 5.56944,-1.11389 17.55775,-0.71245 18.66452,0.625 0.91279,1.10304 37.43538,81.10475 41.61365,91.15354 0.8927,2.14695 1.79967,3.72195 2.01549,3.5 0.21582,-0.22195 3.75994,-8.05354 7.87581,-17.40354 16.0044,-36.35708 28.63223,-65.26042 31.0198,-71 l 2.49591,-6 5.84491,-0.5645 c 3.2147,-0.31047 7.86991,-0.53547 10.34491,-0.5 l 4.5,0.0645 0.5,57.5 c 0.45694,52.54802 0.65482,57.84331 2.29773,61.48635 2.14155,4.74878 5.17362,8.1686 9.01318,10.16584 2.19363,1.14107 2.74263,2.0535 2.5,4.15499 -0.25554,2.21323 -0.84521,2.72067 -3.31091,2.84919 -1.65,0.086 -3.9,-0.0553 -5,-0.31409 z m 279.53162,-7.40763 c -12.87641,-3.37106 -22.78164,-10.77169 -24.97149,-18.65732 -0.57694,-2.07753 -1.05149,-8.16483 -1.05455,-13.52733 L 610,504 h 3.39228 c 3.36167,0 3.40738,0.0616 5.06496,6.82552 3.37161,13.75813 10.94635,22.33936 22.60836,25.61243 19.26259,5.40625 35.94326,-4.47376 33.48699,-19.83444 -1.54831,-9.68261 -5.74782,-13.37222 -34.34873,-30.17817 -14.5919,-8.57423 -23.73155,-16.4221 -27.28122,-23.42534 -1.67811,-3.31078 -2.39103,-6.7463 -2.69769,-13 -0.51664,-10.53608 1.98761,-18.21256 7.8557,-24.08065 15.29244,-15.29244 48.3937,-15.73393 65.32138,-0.87123 4.51942,3.96811 5.42079,7.1533 5.78763,20.45188 l 0.30343,11 h -3.45148 c -3.43034,0 -3.45919,-0.0381 -4.71004,-6.21829 -2.27265,-11.22867 -7.34064,-18.67063 -15.71183,-23.07166 -4.45636,-2.34287 -6.2859,-2.6919 -14.11974,-2.69367 -7.38255,-0.002 -9.74866,0.39697 -13.16579,2.21815 -5.49896,2.93072 -8.54289,7.38185 -9.11421,13.3277 -0.9916,10.31973 5.31511,17.30493 26.17561,28.99165 34.31845,19.22628 39.5246,24.63468 40.37747,41.94612 0.34741,7.05159 0.0372,9.51233 -1.82042,14.44089 -2.54003,6.73903 -9.20349,14.11594 -15.78247,17.47229 -10.30803,5.25876 -28.58659,6.56939 -42.13857,3.02147 z M 902.5,545.66982 c -12.72929,-4.20276 -18.84991,-11.87191 -37.34113,-46.78851 -5.92093,-11.18037 -6.29463,-11.64208 -9.90596,-12.23899 C 847.30132,485.32802 848,482.54814 848,515.5 V 545 h -10.46136 -10.46135 l -0.28865,-57.25 c -0.21677,-42.99536 -0.59462,-57.78404 -1.51753,-59.39482 C 823.95635,426.06049 819.23293,424 815.28742,424 c -2.12125,0 -2.37612,-0.39429 -2.10078,-3.25 L 813.5,417.5 844,417.81289 c 32.2396,0.33074 38.46003,0.96752 46.5,4.76024 11.78636,5.56001 17.57037,13.92896 18.29656,26.47353 0.85665,14.79818 -5.04508,25.92319 -16.89274,31.84354 -3.4228,1.71039 -6.79983,3.1098 -7.50453,3.1098 -0.70469,0 -1.55159,0.43741 -1.88201,0.97203 -0.87381,1.41386 22.2638,41.45375 26.98272,46.6939 2.36404,2.62517 5.63596,4.99238 8,5.78797 3.18985,1.0735 4.06647,1.89741 4.32818,4.06794 0.1805,1.49699 -0.0543,3.1043 -0.52181,3.57179 -1.57148,1.57148 -14.58431,1.97017 -18.80637,0.57619 z m -36.77689,-69.78206 c 12.64314,-2.2017 19.40644,-9.57149 20.10667,-21.90968 0.546,-9.62067 -1.13887,-14.62811 -6.75176,-20.06625 C 873.40817,428.41849 868.78629,427 856.55718,427 H 848 v 25 25 h 5.66809 c 3.11744,0 8.54221,-0.50051 12.05502,-1.11224 z M 475.1481,544.08652 c -10.05163,-3.47115 -14.10568,-8.01898 -21.08985,-23.65853 L 449.17813,509.5 h -24.77228 -24.77229 l -7.10132,17.5 -7.10132,17.5 -6.30541,0.30005 c -3.50403,0.16675 -6.06136,-0.0948 -5.75609,-0.58877 0.53368,-0.86352 19.97171,-47.90057 23.75674,-57.48766 1.03715,-2.62701 6.84697,-16.80201 12.9107,-31.5 6.06373,-14.69799 12.02735,-29.15535 13.25249,-32.12747 2.2274,-5.40352 2.22779,-5.40384 6.71909,-5.41096 l 4.49156,-0.007 8.1143,19.91096 c 36.08814,88.55358 37.38753,91.475 42.7889,96.20236 2.06837,1.81026 5.0738,3.55401 6.67873,3.875 2.50764,0.50152 2.91807,1.0419 2.91807,3.84198 0,2.53372 -0.50039,3.39247 -2.25,3.86134 -4.26573,1.14318 -12.26425,0.56008 -17.6019,-1.28319 z M 444.69284,497.75 c -0.28663,-0.6875 -4.65546,-11.6 -9.70851,-24.25 -5.05306,-12.65 -9.52217,-23.35798 -9.93136,-23.79551 -0.57727,-0.61724 -9.38363,19.75963 -20.76403,48.04551 -0.39266,0.97596 4.03832,1.25 20.21106,1.25 16.18246,0 20.59997,-0.27346 20.19284,-1.25 z M 1029.5,545.06169 c -11.6357,-2.84526 -17.625,-9.74776 -25.0148,-28.82851 l -2.8144,-7.26683 -24.92677,0.26683 -24.92679,0.26682 -7.13787,17.75 -7.13787,17.75 h -6.21972 -6.21973 l 1.56698,-3.75 c 3.14493,-7.52626 30.82274,-74.39715 40.45866,-97.75 5.44662,-13.2 10.68355,-24.58253 11.63763,-25.29451 0.95407,-0.71198 3.22374,-1.16198 5.04371,-1 l 3.30903,0.29451 11.00693,27 c 17.93631,43.99785 29.85021,72.4913 33.08231,79.12007 3.6219,7.42823 7.9024,11.83252 13.3119,13.69655 3.2011,1.10308 4.0454,1.91965 4.3109,4.16906 0.1847,1.56569 -0.2556,3.16855 -1,3.6405 -1.5956,1.01149 -14.1099,0.96746 -18.3301,-0.0645 z M 997,498.25843 C 997,496.85885 977.62476,449 977.05815,449 c -0.31151,0 -1.7637,3.0375 -3.22709,6.75 -1.46338,3.7125 -6.03441,14.9625 -10.15784,25 L 956.17608,499 h 20.41196 C 987.81462,499 997,498.66629 997,498.25843 Z M 508.78156,488.07245 c -0.27692,-55.98887 -0.31608,-56.97408 -2.37525,-59.75 -1.36525,-1.84046 -3.62674,-3.19772 -6.5,-3.90106 -3.6975,-0.9051 -4.45721,-1.50833 -4.72273,-3.75 L 494.86716,418 l 42.31642,0.0147 c 45.38874,0.0158 45.28188,0.004 49.15515,5.2217 1.6878,2.27345 2.10609,4.68448 2.47223,14.25 L 589.25167,449 h -2.92576 c -2.76938,0 -2.99155,-0.31855 -4.15679,-5.96006 -1.3991,-6.77377 -4.87166,-11.59988 -9.84031,-13.67591 C 569.94095,428.36631 563.69441,428 549.06883,428 h -19.9954 l 0.11561,17.25 c 0.0636,9.4875 0.31494,19.60431 0.55857,22.4818 l 0.44296,5.23181 23.15472,0.26819 23.15471,0.2682 0.30226,5.25 0.30226,5.25 h -24.10857 -24.10856 l 0.30631,25.25 0.3063,25.25 h 21 c 19.69795,0 21.25388,-0.13585 25.09468,-2.19109 5.00302,-2.67714 9.34405,-7.48516 12.33324,-13.66001 1.89714,-3.91898 2.69825,-4.6489 5.10227,-4.6489 1.56848,0 3.0825,0.37332 3.36449,0.82959 0.80638,1.30475 -5.76216,19.47338 -8.35845,23.11953 -4.79403,6.73259 -6.52458,7.00438 -44.75467,7.02892 L 509.06311,545 Z M 747,486.5 V 428 l -9.25,0.006 c -5.0875,0.003 -10.89319,0.46198 -12.90154,1.01982 -4.70568,1.30703 -10.38821,7.59035 -11.9039,13.16243 -0.64513,2.37169 -1.33246,4.87467 -1.52738,5.56217 -0.19493,0.6875 -1.78618,1.25 -3.53611,1.25 h -3.18171 l 0.66923,-10.21197 c 0.81421,-12.42425 2.53683,-16.50356 8.13141,-19.25587 3.79218,-1.86561 6.2989,-1.96951 48.24836,-2 l 44.24837,-0.0322 0.002,5.25 L 806,428 H 787 768 V 486.5 545 H 757.5 747 Z M 381.5,372.51202 c -19.01672,-2.99203 -33.42671,-10.48605 -48.11538,-25.02275 -9.13035,-9.03589 -10.61007,-11.03218 -15.19525,-20.5 -8.05301,-16.62842 -10.6873,-31.21215 -9.13688,-50.58284 1.10042,-13.74847 3.05614,-20.6665 9.69583,-34.29734 4.92906,-10.11905 6.56483,-12.41545 14.65014,-20.5669 17.47365,-17.61657 35.54548,-24.75856 62.60568,-24.74174 21.3807,0.0133 41.55228,6.66073 52.04159,17.15004 5.49361,5.49361 6.46491,8.80196 7.73405,26.34286 l 0.78094,10.79335 -5.42048,-0.29335 -5.42047,-0.29335 -1.37462,-5.38767 c -5.90431,-23.14123 -26.52872,-36.08258 -52.72357,-33.08285 -24.94135,2.85618 -40.27207,23.20021 -44.74197,59.37308 -2.51373,20.34254 1.40272,46.64621 9.16756,61.57122 4.74529,9.12105 13.65841,18.25741 21.32866,21.86285 12.54595,5.89729 31.3392,6.72562 45.12417,1.98889 l 7,-2.40531 0.51731,-25.4601 c 0.4832,-23.78147 0.66498,-25.75883 2.75704,-29.99081 5.6931,-11.51641 14.46506,-17.16208 30.37829,-19.55158 5.14105,-0.77197 10.58486,-1.40676 12.09736,-1.41065 2.66019,-0.007 2.75,0.16867 2.75,5.37422 v 5.38128 l -4.28939,1.08008 c -4.67489,1.17715 -7.98005,4.0808 -9.644,8.47245 C 463.40713,300.05567 463,311.41962 463,328.08691 v 26.95671 l -6.10556,3.94621 C 438.07719,371.152 407.59901,376.61834 381.5,372.51202 Z m 175.5,0.0812 C 518.67105,365.7295 491.55125,333.02979 489.32993,291 c -2.60285,-49.24857 28.88017,-89.17059 74.32599,-94.24904 19.59845,-2.19007 37.57742,1.93488 53.15182,12.19475 18.53589,12.21078 30.99561,30.33985 36.90742,53.70086 2.66782,10.54212 2.34045,38.06165 -0.58116,48.85343 -7.99498,29.53172 -30.21891,52.43813 -57.78382,59.55834 -10.14006,2.61924 -28.24773,3.34396 -38.35018,1.53487 z m 31.43305,-17.46057 c 10.91789,-4.8295 18.25494,-13.68341 23.31293,-28.13264 4.88383,-13.95172 5.76111,-20.51271 5.68271,-42.5 -0.0657,-18.4187 -0.28339,-20.78997 -2.75366,-29.99149 -7.12673,-26.54638 -19.31852,-40.29151 -37.38403,-42.1471 -28.50636,-2.92801 -46.32931,19.27124 -50.39009,62.76302 -1.24001,13.28077 0.0717,28.49097 3.69761,42.87557 3.39942,13.48617 7.48793,21.24043 15.37059,29.15184 5.50469,5.52476 7.72082,7.00871 13.07928,8.75803 8.57162,2.79829 22.11121,2.44016 29.38466,-0.77723 z m 337.91483,14.5144 C 911.42405,365.83343 900.82137,356.7966 893.61074,341.74465 891.17498,336.66009 888.26642,330.3625 887.14728,327.75 L 885.11246,323 H 854.0052 822.89795 l -1.54113,3.75 c -0.84763,2.0625 -5.16259,12.4125 -9.5888,23 L 803.72035,369 h -8.36018 C 790.73708,369 787,368.57464 787,368.04844 c 0,-0.52336 1.54012,-4.46086 3.42249,-8.75 1.88237,-4.28914 7.45392,-17.47344 12.38121,-29.29844 15.09473,-36.22579 36.58152,-87.44719 45.5145,-108.5 l 8.48627,-20 h 7.7908 7.7908 l 10.34218,24 c 5.6882,13.2 12.51185,29.175 15.16366,35.5 30.22169,72.0837 32.21382,76.49084 38.73151,85.68471 4.92059,6.94099 7.73806,9.21446 14.62658,11.80245 4.64104,1.74362 4.75,1.88199 4.75,6.03207 0,3.54109 -0.37421,4.35812 -2.25,4.91262 -4.71743,1.3945 -22.24838,1.53217 -27.40212,0.21519 z M 879,307.58861 c 0,-0.77626 -1.60946,-5.16376 -3.57657,-9.75 -3.17416,-7.40038 -7.76168,-18.94141 -16.92884,-42.58861 -1.54581,-3.9875 -3.07697,-7.24491 -3.40258,-7.23868 -0.59093,0.0113 -23.85075,55.35009 -24.81598,59.04115 C 829.7815,308.94356 830.48016,309 854.38337,309 874.91123,309 879,308.76557 879,307.58861 Z M 715,293 v -76 h -8.3185 c -4.5855,0 -10.65006,0.6924 -13.51409,1.54293 -9.14414,2.71551 -15.62407,10.46775 -17.03313,20.37752 l -0.65117,4.57955 -5.89864,0.30459 -5.89863,0.30459 0.63957,-12.80459 c 0.35176,-7.04252 1.14723,-14.60459 1.7677,-16.80459 1.41223,-5.00732 7.22474,-10.67944 12.59148,-12.28735 C 681.65826,201.32171 698.43125,201 741.90808,201 h 59.17605 l -0.29207,7.6375 -0.29206,7.6375 -25,0.40266 -25,0.40266 -0.25625,75.95984 L 749.98751,369 H 732.49375 715 Z"
       id="path1" />
  </g>
</svg>
