<?xml version="1.0" encoding="UTF-8" standalone="no"?>
<!-- Created with Inkscape (http://www.inkscape.org/) -->

<svg
   version="1.1"
   id="svg1"
   width="1207"
   height="752"
   viewBox="0 0 1207 752"
   sodipodi:docname="palabra gota.svg"
   inkscape:version="1.4.3 (0d15f75, 2025-12-25)"
   xmlns:inkscape="http://www.inkscape.org/namespaces/inkscape"
   xmlns:sodipodi="http://sodipodi.sourceforge.net/DTD/sodipodi-0.dtd"
   xmlns="http://www.w3.org/2000/svg"
   xmlns:svg="http://www.w3.org/2000/svg">
  <defs
     id="defs1" />
  <sodipodi:namedview
     id="namedview1"
     pagecolor="#ffffff"
     bordercolor="#000000"
     borderopacity="0.25"
     inkscape:showpageshadow="2"
     inkscape:pageopacity="0.0"
     inkscape:pagecheckerboard="0"
     inkscape:deskcolor="#d1d1d1"
     inkscape:zoom="0.78327121"
     inkscape:cx="541.95788"
     inkscape:cy="439.82212"
     inkscape:window-width="1920"
     inkscape:window-height="1051"
     inkscape:window-x="1271"
     inkscape:window-y="186"
     inkscape:window-maximized="1"
     inkscape:current-layer="g1" />
  <g
     inkscape:groupmode="layer"
     inkscape:label="Image"
     id="g1">
    <path
       style="fill:#040404;stroke-width:1.71029"
       d="m 176.95266,1019.058 c -19.454,-5.19 -30.5786,-14.7387 -36.46695,-31.30129 -3.56741,-10.0343 -3.68409,-12.36857 -4.47577,-89.53246 -0.44707,-43.57624 -1.26647,-78.40992 -1.8209,-77.40817 -0.91176,1.64741 -13.53318,35.22574 -55.282756,147.07553 -14.0364,37.60439 -14.1317,37.79319 -19.05768,37.74199 l -4.95072,-0.052 -33.725659,-86.57203 c -18.5491139,-47.6146 -35.093671,-90.64073 -36.765694,-95.61365 -1.672006,-4.9729 -3.311104,-8.73421 -3.642419,-8.35845 -0.331331,0.37576 -0.603111,43.01522 -0.603946,94.75438 l -0.0016,94.07135 h -8.802356 -8.802398 V 888.43439 773.00515 l 5.018701,-1.13836 c 8.94443,-2.0288 28.1974641,-1.29763 29.9749181,1.13836 1.46592604,2.00904 60.1206129,147.72165 66.8308529,166.02421 1.43366,3.91039 2.89024,6.77904 3.23685,6.37479 0.34659,-0.40425 6.03839,-14.66847 12.64841,-31.69826 25.702806,-66.21966 45.982906,-118.8633 49.817306,-129.31719 l 4.00839,-10.92821 9.38683,-1.02816 c 5.16275,-0.56548 12.63895,-0.9753 16.61376,-0.91069 l 7.22693,0.11742 0.80299,104.72871 c 0.73383,95.70933 1.05163,105.35401 3.69012,111.98932 3.43929,8.64928 8.30874,14.87801 14.47502,18.51571 3.52293,2.0784 4.40461,3.7402 4.01495,7.5678 -0.41038,4.0311 -1.35739,4.9554 -5.31727,5.1894 -2.64987,0.1567 -6.26333,-0.1006 -8.02991,-0.572 z m 448.92328,-13.492 c -20.67931,-6.13996 -36.58695,-19.61924 -40.10381,-33.98188 -0.92655,-3.78394 -1.68867,-14.87116 -1.69359,-24.63825 l -0.009,-17.75836 h 5.44796 c 5.39878,0 5.47219,0.11215 8.13423,12.4318 5.41476,25.05863 17.57967,40.68821 36.30868,46.64968 30.9354,9.84677 57.72429,-8.14837 53.77955,-36.12584 -2.48655,-17.6356 -9.2309,-24.35573 -55.1635,-54.96557 -23.43436,-15.61683 -38.11248,-29.9107 -43.8132,-42.66618 -2.69502,-6.03015 -3.83996,-12.2875 -4.33245,-23.6778 -0.82971,-19.19008 3.19208,-33.17178 12.61613,-43.85973 24.55941,-27.85319 77.7195,-28.6573 104.90509,-1.58685 7.25812,7.2274 8.7057,13.02881 9.29483,37.25043 l 0.48731,20.03505 h -5.54302 c -5.50907,0 -5.55541,-0.0694 -7.56425,-11.3258 -3.64983,-20.45154 -11.78894,-34.0061 -25.23294,-42.022 -7.15685,-4.26722 -10.09506,-4.90293 -22.67609,-4.90616 -11.85625,-0.004 -15.65618,0.72303 -21.14404,4.04007 -8.83124,5.33792 -13.71974,13.44506 -14.63727,24.27465 -1.59249,18.79604 8.53597,31.51867 42.03761,52.80449 55.11488,35.01815 63.47586,44.86884 64.84556,76.39935 0.55794,12.84355 0.0598,17.32546 -2.92357,26.30219 -4.07924,12.27426 -14.78065,25.71032 -25.34639,31.82351 -16.55453,9.5781 -45.9096,11.9653 -67.67386,5.5032 z m 427.94386,-0.4824 c -20.443,-7.65475 -30.2726,-21.6231 -59.96916,-85.2191 -9.5089,-20.36358 -10.1091,-21.20453 -15.9088,-22.29172 -12.7702,-2.39382 -11.6481,-7.457 -11.6481,52.56048 v 53.73034 h -16.8008 -16.80073 l -0.46357,-104.27332 c -0.34812,-78.31041 -0.95495,-105.24604 -2.43712,-108.17988 -2.11148,-4.17947 -9.69723,-7.93239 -16.03366,-7.93239 -3.40668,0 -3.816,-0.71814 -3.3738,-5.91944 l 0.50323,-5.91946 48.98255,0.56989 c 51.77616,0.60241 61.76616,1.76222 74.67816,8.67016 18.9287,10.12683 28.2178,25.36978 29.384,48.21807 1.3758,26.95293 -8.1023,47.21568 -27.1295,57.99882 -5.4969,3.11525 -10.9204,5.66409 -12.0521,5.66409 -1.1317,0 -2.4918,0.79668 -3.0225,1.77043 -1.4033,2.57516 35.7553,75.50256 43.3338,85.04681 3.7966,4.7814 9.0513,9.09297 12.8479,10.54203 5.1228,1.95523 6.5307,3.45588 6.951,7.40921 0.2899,2.72658 -0.087,5.65408 -0.838,6.50558 -2.5238,2.8622 -23.4222,3.5884 -30.2028,1.0494 z M 994.75674,877.98477 c 20.30466,-4.01012 31.16646,-17.43321 32.29096,-39.90561 0.8769,-17.5228 -1.829,-26.64318 -10.8432,-36.54805 -9.1057,-10.0054 -16.52836,-12.58898 -36.16806,-12.58898 h -13.7427 v 45.53421 45.53422 h 9.1029 c 5.0065,0 13.7186,-0.91161 19.3601,-2.02579 z M 367.49959,1002.1999 c -16.14275,-6.32229 -22.65349,-14.60557 -33.86995,-43.09095 l -7.83739,-19.9039 h -39.78389 -39.7839 l -11.40461,31.87395 -11.4046,31.874 -10.12638,0.5465 c -5.62742,0.3037 -9.73445,-0.1727 -9.24419,-1.0724 0.85708,-1.5728 32.07424,-87.24461 38.15294,-104.70624 1.66564,-4.78475 10.99612,-30.60266 20.73437,-57.37311 9.73826,-26.77047 19.31574,-53.10265 21.28329,-58.51597 3.57717,-9.84181 3.5778,-9.84239 10.79075,-9.85536 l 7.21337,-0.0132 13.03143,36.26521 c 57.95699,161.28872 60.04378,166.6097 68.71829,175.21998 3.32177,3.29715 8.14844,6.47316 10.72593,7.05779 4.02724,0.91346 4.68637,1.89769 4.68637,6.99767 0,4.61483 -0.80361,6.17893 -3.61346,7.03293 -6.85069,2.0821 -19.69619,1.0201 -28.26837,-2.3372 z m -48.91065,-84.39593 c -0.46033,-1.2522 -7.4766,-21.12788 -15.59172,-44.16819 -8.11513,-23.04032 -15.29244,-42.54351 -15.94959,-43.34041 -0.92709,-1.12422 -15.06997,35.98958 -33.3467,87.5086 -0.63061,1.77757 6.48548,2.27671 32.45864,2.27671 25.98877,0 33.08321,-0.49807 32.42937,-2.27671 z m 939.19086,86.17203 c -18.6868,-5.18226 -28.3055,-17.75426 -40.1734,-52.50734 l -4.5199,-13.23559 -40.032,0.486 -40.032,0.48598 -11.4633,32.3293 -11.4633,32.32925 h -9.9888 -9.9887 l 2.5165,-6.83009 c 5.0507,-13.7081 49.5008,-135.50465 64.976,-178.0388 8.7471,-24.04207 17.1576,-44.77386 18.6898,-46.07064 1.5322,-1.29676 5.1773,-2.11639 8.1001,-1.82136 l 5.3143,0.5364 17.6769,49.17697 c 28.8054,80.13631 47.939,132.03339 53.1297,144.10682 5.8166,13.52955 12.6911,21.55138 21.3787,24.94648 5.1409,2.00911 6.4968,3.49638 6.9233,7.59339 0.2965,2.85173 -0.4106,5.77113 -1.6061,6.63073 -2.5625,1.8423 -22.6603,1.7621 -29.4378,-0.1176 z m -52.1945,-85.246 c 0,-2.54915 -31.1163,-89.71776 -32.0263,-89.71776 -0.5003,0 -2.8325,5.5324 -5.1826,12.29423 -2.3502,6.76184 -9.6912,27.25224 -16.3134,45.53423 l -12.0403,33.23998 h 32.7813 c 18.0297,0 32.7813,-0.60782 32.7813,-1.35068 z M 421.51439,900.17758 c -0.44473,-101.97638 -0.50761,-103.77081 -3.81462,-108.82678 -2.19255,-3.35216 -5.82448,-5.82423 -10.43889,-7.10528 -5.93812,-1.64852 -7.1582,-2.74722 -7.58462,-6.83013 l -0.50817,-4.86559 67.95948,0.0267 c 72.89359,0.0287 72.72198,0.008 78.94239,9.51064 2.71058,4.1408 3.38234,8.53217 3.97036,25.95451 l 0.70777,20.97051 h -4.69873 c -4.44757,0 -4.80437,-0.58019 -6.67572,-10.85547 -2.24694,-12.33753 -7.82382,-21.12766 -15.80338,-24.90887 -3.83487,-1.81721 -13.86672,-2.48441 -37.35517,-2.48441 h -32.11228 l 0.18567,31.41862 c 0.10209,17.28023 0.50579,35.70668 0.89705,40.94765 l 0.71139,9.52905 37.1861,0.48847 37.1861,0.4885 0.48542,9.56218 0.48542,9.56218 H 492.522 453.80403 l 0.49193,45.98957 0.49192,45.98956 h 33.72566 c 31.63459,0 34.13339,-0.24744 40.30164,-3.99079 8.03478,-4.87605 15.00641,-13.63323 19.80699,-24.87991 3.04678,-7.1379 4.33335,-8.46737 8.19417,-8.46737 2.51895,0 4.95044,0.67997 5.40332,1.511 1.29502,2.37643 -9.25395,35.4682 -13.42354,42.10919 -7.69913,12.26249 -10.47838,12.75759 -71.87529,12.80229 l -54.95427,0.04 z m 382.57498,-2.86402 V 790.76349 l -14.85535,0.0105 c -8.17044,0.005 -17.49429,0.84142 -20.71966,1.85746 -7.55725,2.38059 -16.6833,13.82483 -19.11748,23.97365 -1.03607,4.31971 -2.1399,8.87856 -2.45295,10.13075 -0.31305,1.2522 -2.86857,2.27672 -5.67892,2.27672 h -5.10979 l 1.07477,-18.59977 c 1.30762,-22.62914 4.07412,-30.05907 13.05892,-35.07204 6.09018,-3.39796 10.11593,-3.58721 77.48609,-3.64274 l 71.06217,-0.0586 0.003,9.56218 0.003,9.56149 h -30.5137 -30.51369 V 897.31317 1003.8632 H 820.9522 804.08937 Z M 217.10226,689.69942 c -30.54055,-5.44959 -53.68276,-19.09897 -77.27252,-45.57566 -14.6632,-16.45769 -17.03961,-20.09367 -24.40333,-37.33805 -12.93301,-30.28649 -17.163636,-56.84885 -14.67368,-92.13001 1.76725,-25.04103 4.90811,-37.64132 15.57134,-62.46811 7.91599,-18.43052 10.54301,-22.61311 23.52788,-37.45991 28.06241,-32.08626 57.08548,-45.09446 100.54372,-45.06383 34.33707,0.0242 66.73229,12.13165 83.57796,31.23655 8.82264,10.00589 10.38254,16.03161 12.42076,47.98006 l 1.25418,19.65867 -8.70521,-0.5343 -8.70519,-0.53429 -2.20761,-9.81293 c -9.48222,-42.14872 -42.6047,-65.71969 -84.67321,-60.25607 -40.05541,5.20215 -64.6763,42.25613 -71.85488,108.14027 -4.03702,37.05126 2.25274,84.95995 14.72296,112.1439 7.62086,16.61279 21.93518,33.25347 34.25348,39.82031 20.14859,10.74113 50.33024,12.24983 72.46868,3.62249 l 11.24189,-4.38095 0.83079,-46.37223 c 0.77602,-43.31482 1.06796,-46.91632 4.42776,-54.62433 9.14303,-20.97563 23.23066,-31.25847 48.78706,-35.61063 8.25643,-1.40604 16.99911,-2.56223 19.42816,-2.56932 4.27222,-0.0132 4.41646,0.30721 4.41646,9.78844 v 9.8013 l -6.8887,1.96721 c -7.5078,2.14403 -12.81583,7.43265 -15.4881,15.43146 -1.05912,3.17022 -1.71297,23.86817 -1.71297,54.22545 v 49.09811 l -9.80542,7.1875 c -30.22021,22.1518 -79.16767,32.10802 -121.08226,24.6289 z m 281.85017,0.14789 C 437.39675,677.34595 393.84279,617.78772 390.27539,541.23596 c -4.18014,-89.69979 46.38109,-162.41251 119.36634,-171.66224 31.47479,-3.98893 60.34873,3.52413 85.36097,22.21113 29.76833,22.24033 49.77845,55.26005 59.27272,97.80906 4.28448,19.2011 3.75873,69.32431 -0.93334,88.98012 -12.8398,53.78816 -48.53107,95.50917 -92.79988,108.4777 -16.28478,4.7706 -45.36539,6.09059 -61.58977,2.79557 z m 50.48098,-31.80214 c 17.53395,-8.79629 29.31713,-24.92253 37.44019,-51.2399 7.84335,-25.41123 9.25224,-37.36122 9.12633,-77.40818 -0.10546,-33.54724 -0.45512,-37.8662 -4.42233,-54.62556 -11.44541,-48.35075 -31.02523,-73.3857 -60.03815,-76.76541 -45.78075,-5.33299 -74.40413,35.10003 -80.92567,114.3146 -1.99144,24.18919 0.11516,51.89256 5.9383,78.09222 5.45942,24.56329 12.0255,38.68666 24.68493,53.09626 8.84043,10.06262 12.3995,12.76544 21.0051,15.95159 13.76589,5.09672 35.51025,4.44444 47.1913,-1.41562 z m 542.68569,26.43608 c -23.9674,-6.94601 -40.9951,-23.40541 -52.5753,-50.82056 -3.9118,-9.26086 -8.5829,-20.73109 -10.3802,-25.48942 l -3.2679,-8.65149 h -49.95766 -49.95779 l -2.47502,6.83013 c -1.36128,3.75657 -8.29103,22.60774 -15.39946,41.89147 l -12.92444,35.06136 h -13.4263 c -7.42461,0 -13.4263,-0.77474 -13.4263,-1.73315 0,-0.95322 2.47341,-8.12487 5.49646,-15.93698 3.02306,-7.8121 11.97088,-31.82557 19.88403,-53.36326 24.24189,-65.98052 58.74932,-159.27357 73.09552,-197.61851 l 13.6288,-36.42737 h 12.5119 12.51186 l 16.6094,43.71285 c 9.1352,24.04207 20.0938,53.13843 24.3526,64.65858 48.5356,131.29101 51.7349,139.31803 62.2022,156.06346 7.9024,12.64211 12.4272,16.78293 23.49,21.49661 7.4535,3.17579 7.6285,3.42781 7.6285,10.98663 0,6.44963 -0.601,7.93774 -3.6135,8.94769 -7.5761,2.5399 -35.7305,2.79065 -44.0074,0.39194 z m -76.0399,-113.03131 c 0,-1.41385 -2.5848,-9.40511 -5.7439,-17.75834 -5.0977,-13.47882 -12.46506,-34.4993 -27.18746,-77.56957 -2.4825,-7.2627 -4.9415,-13.19565 -5.4644,-13.1843 -0.9491,0.0206 -38.304,100.81293 -39.8541,107.5357 -0.79421,3.44438 0.32783,3.54717 38.716,3.54717 32.96736,0 39.53386,-0.42697 39.53386,-2.57066 z M 752.69788,544.8787 V 406.45469 h -13.35937 c -7.36423,0 -17.10382,1.26111 -21.70342,2.81024 -14.68534,4.94594 -25.092,19.06562 -27.35492,37.11498 l -1.04578,8.34104 -9.47311,0.55478 -9.47311,0.55477 1.02714,-23.32189 c 0.56492,-12.82702 1.84243,-26.60034 2.8389,-30.60735 2.26802,-9.12017 11.60282,-19.4512 20.22171,-22.37979 4.77566,-1.62273 31.71283,-2.20869 101.53591,-2.20869 h 95.03578 l -0.46905,13.91071 -0.46904,13.9107 -40.14961,0.7334 -40.1496,0.73339 -0.41152,138.35087 -0.41153,138.35089 h -28.09469 -28.09469 z"
       id="path1" />
  </g>
</svg>
