<?xml version="1.0" encoding="UTF-8" standalone="no"?>
<!-- Created with Inkscape (http://www.inkscape.org/) -->

<svg
   version="1.1"
   id="svg1"
   width="1207"
   height="752"
   viewBox="0 0 1207 752"
   sodipodi:docname="palabra maestra.svg"
   inkscape:version="1.4.3 (0d15f75, 2025-12-25)"
   xmlns:inkscape="http://www.inkscape.org/namespaces/inkscape"
   xmlns:sodipodi="http://sodipodi.sourceforge.net/DTD/sodipodi-0.dtd"
   xmlns="http://www.w3.org/2000/svg"
   xmlns:svg="http://www.w3.org/2000/svg">
  <defs
     id="defs1" />
  <sodipodi:namedview
     id="namedview1"
     pagecolor="#ffffff"
     bordercolor="#000000"
     borderopacity="0.25"
     inkscape:showpageshadow="2"
     inkscape:pageopacity="0.0"
     inkscape:pagecheckerboard="0"
     inkscape:deskcolor="#d1d1d1"
     inkscape:zoom="0.55385638"
     inkscape:cx="222.98199"
     inkscape:cy="584.08643"
     inkscape:window-width="1920"
     inkscape:window-height="1051"
     inkscape:window-x="1271"
     inkscape:window-y="186"
     inkscape:window-maximized="1"
     inkscape:current-layer="g1" />
  <g
     inkscape:groupmode="layer"
     inkscape:label="Image"
     id="g1">
    <path
       style="fill:#040404;stroke-width:1.46118"
       d="m 220.91385,260.67119 c -17.01269,-4.33179 -26.74124,-12.30158 -31.89066,-26.12537 -3.11973,-8.37506 -3.22177,-10.32334 -3.9141,-74.72755 -0.39097,-36.37056 -1.10755,-65.444208 -1.59238,-64.608098 -0.79735,1.375 -11.83491,29.400878 -48.34527,122.755388 -12.27498,31.38624 -12.35831,31.54375 -16.66612,31.50101 l -4.32944,-0.043 -29.493392,-72.25659 C 68.461126,137.42584 53.992758,101.51444 52.530563,97.363832 c -1.462184,-4.15059 -2.895594,-7.28994 -3.185325,-6.97632 -0.289755,0.31363 -0.527433,35.902318 -0.528156,79.085988 l -0.0012,78.51584 h -7.697946 -7.69778 V 151.64726 55.305182 l 4.3889,-0.95013 c 7.821976,-1.69332 24.658931,-1.08305 26.213333,0.95013 1.281959,1.67682 52.576011,123.294668 58.444161,138.570758 1.25376,3.26377 2.52755,5.65806 2.83066,5.32066 0.3031,-0.3374 5.28064,-12.24292 11.06116,-26.45669 22.47733,-55.2697 40.21245,-99.208278 43.56566,-107.933538 l 3.50537,-9.12115 8.20888,-0.85815 c 4.51487,-0.47197 11.05286,-0.81401 14.52888,-0.76009 l 6.32001,0.098 0.70222,87.410958 c 0.64174,79.88301 0.91966,87.93287 3.22704,93.47098 3.00769,7.21905 7.26607,12.41783 12.65853,15.45402 3.08084,1.73463 3.85188,3.12171 3.51113,6.31637 -0.3589,3.36453 -1.18706,4.13593 -4.65,4.33131 -2.31735,0.13073 -5.47735,-0.084 -7.02225,-0.47747 z m 392.58739,-11.26101 c -18.08423,-5.12466 -31.99561,-16.37502 -35.07114,-28.36268 -0.81029,-3.15824 -1.47676,-12.41211 -1.48105,-20.56413 l -0.008,-14.82186 h 4.76428 c 4.72128,0 4.78549,0.0936 7.11347,10.37609 4.73524,20.91498 15.37356,33.9601 31.75224,38.93578 27.05329,8.21853 50.48042,-6.80097 47.03071,-30.15213 -2.17452,-14.71941 -8.07251,-20.32833 -48.24098,-45.87657 -20.49355,-13.03446 -33.3297,-24.96472 -38.31502,-35.61098 -2.35682,-5.03303 -3.35808,-10.25567 -3.78877,-19.76248 -0.7256,-16.016858 2.7915,-27.686568 11.03292,-36.607178 21.47743,-23.24743 67.96639,-23.91857 91.74042,-1.32443 6.34729,6.03227 7.61321,10.87437 8.12842,31.09075 l 0.42615,16.722088 h -4.84741 c -4.81773,0 -4.85826,-0.0579 -6.61501,-9.45298 -3.19182,-17.069718 -10.30954,-28.382908 -22.06643,-35.073318 -6.25872,-3.56161 -8.82822,-4.0922 -19.83043,-4.09489 -10.3684,-0.002 -13.69148,0.60347 -18.49066,3.37201 -7.72299,4.45525 -11.99803,11.22182 -12.80042,20.26064 -1.39265,15.687948 7.46479,26.306788 36.76226,44.072838 48.19845,29.2276 55.51021,37.44941 56.70801,63.7661 0.48792,10.71976 0.0522,14.46055 -2.55668,21.9529 -3.56733,10.24462 -12.92581,21.45892 -22.16564,26.56122 -14.47708,7.99431 -40.14835,9.98672 -59.18139,4.59321 z m 374.24079,-0.40259 c -17.8776,-6.38901 -26.47379,-18.04757 -52.44369,-71.12747 -8.31563,-16.99628 -8.84047,-17.69817 -13.91239,-18.60559 -11.16759,-1.99799 -10.18633,-6.22394 -10.18633,43.86918 v 44.84562 h -14.69243 -14.69241 l -0.4054,-87.03092 c -0.30444,-65.361148 -0.8351,-87.842748 -2.13129,-90.291438 -1.8465,-3.48837 -8.48029,-6.62071 -14.02156,-6.62071 -2.97918,0 -3.33713,-0.5994 -2.95043,-4.94062 l 0.4401,-4.94062 42.83563,0.47565 c 45.27882,0.50279 54.01504,1.47082 65.30683,7.23647 16.5533,8.45228 24.67665,21.17468 25.69645,40.244818 1.2032,22.49606 -7.08544,39.4082 -23.72488,48.40825 -4.80719,2.60012 -9.55006,4.72749 -10.53976,4.72749 -0.9897,0 -2.17909,0.66495 -2.64315,1.47767 -1.22725,2.14933 31.26828,63.01761 37.89579,70.98363 3.32019,3.99077 7.91539,7.58938 11.23559,8.79881 4.4799,1.63193 5.7111,2.88443 6.0787,6.18406 0.2535,2.2757 -0.076,4.71912 -0.7329,5.4298 -2.207,2.38895 -20.48279,2.99503 -26.41247,0.87592 z M 936.09079,142.92555 c 17.75662,-3.34701 27.25534,-14.55049 28.23875,-33.30689 0.76686,-14.625258 -1.59947,-22.237508 -9.48248,-30.504528 -7.96301,-8.35092 -14.45419,-10.5073 -31.62934,-10.5073 h -12.0181 v 38.004768 38.00477 h 7.96054 c 4.37828,0 11.99708,-0.76088 16.93063,-1.69082 z M 387.54884,246.60067 c -14.11698,-5.27681 -19.81068,-12.19038 -29.61958,-35.96548 l -6.85386,-16.61263 h -34.79137 -34.79137 l -9.97342,26.60334 -9.97344,26.60334 -8.85561,0.45613 c -4.92122,0.25349 -8.51286,-0.14411 -8.08412,-0.89505 0.74952,-1.31271 28.04921,-72.818 33.36509,-87.3922 1.45661,-3.99356 9.6162,-25.54226 18.13239,-47.88601 8.51619,-22.343738 16.89177,-44.321678 18.61242,-48.839878 3.12827,-8.21438 3.12881,-8.21486 9.43661,-8.22568 l 6.30815,-0.0111 11.39611,30.26845 c 50.68388,134.618328 52.50881,139.059438 60.09475,146.245928 2.90492,2.75194 7.12589,5.40278 9.37993,5.89074 3.52184,0.76241 4.09826,1.58389 4.09826,5.84055 0,3.85173 -0.70277,5.15719 -3.16,5.86997 -5.99099,1.73784 -17.2245,0.85142 -24.72094,-1.9507 z m -42.7728,-70.44035 c -0.40255,-1.04513 -6.53835,-17.63421 -13.63509,-36.86462 -7.09675,-19.23041 -13.37339,-35.50859 -13.94807,-36.17372 -0.81075,-0.93832 -13.17882,30.03841 -29.16198,73.03834 -0.55147,1.48365 5.67161,1.90024 28.38536,1.90024 22.72741,0 28.93157,-0.41571 28.35978,-1.90024 z m 821.33066,71.92279 c -16.3416,-4.32534 -24.7533,-14.81846 -35.1319,-43.82483 l -3.9526,-11.04696 -35.0084,0.40562 -35.0083,0.40562 -10.0248,26.98339 -10.0248,26.98338 h -8.7353 -8.7352 l 2.2007,-5.70071 c 4.4169,-11.44136 43.289,-113.09786 56.822,-148.598648 7.6496,-20.06651 15.0045,-37.37013 16.3445,-38.45247 1.3399,-1.08235 4.5276,-1.76644 7.0837,-1.52019 l 4.6473,0.44771 15.4586,41.04515 c 25.1907,66.885118 41.923,110.200598 46.4624,120.277588 5.0867,11.29233 11.0985,17.98769 18.6958,20.82137 4.4958,1.67688 5.6816,2.91823 6.0544,6.33776 0.2595,2.38015 -0.3589,4.81681 -1.4044,5.53426 -2.2409,1.53766 -19.8165,1.47073 -25.7437,-0.098 z m -45.6445,-71.14988 c 0,-2.12762 -27.2115,-74.8822 -28.0073,-74.8822 -0.4375,0 -2.477,4.61758 -4.5322,10.26129 -2.0553,5.6437 -8.4751,22.74584 -14.2661,38.00476 l -10.5294,27.74348 h 28.6675 c 15.7671,0 28.6675,-0.5073 28.6675,-1.12733 z M 434.78526,161.4486 c -0.38892,-85.113758 -0.44393,-86.611458 -3.33591,-90.831388 -1.91743,-2.79786 -5.09357,-4.86115 -9.12891,-5.93036 -5.19294,-1.37592 -6.25991,-2.29295 -6.63282,-5.70071 l -0.4444,-4.06103 59.43117,0.0224 c 63.74609,0.024 63.596,0.006 69.03582,7.93798 2.37041,3.45609 2.95788,7.12131 3.47211,21.66272 l 0.61895,17.502868 h -4.10907 c -3.88945,0 -4.20148,-0.48425 -5.838,-9.060428 -1.96496,-10.29742 -6.84198,-17.63403 -13.82019,-20.78999 -3.35363,-1.51673 -12.12656,-2.07359 -32.66741,-2.07359 h -28.08248 l 0.16237,26.2233 c 0.0893,14.422798 0.44231,29.802278 0.78447,34.176618 l 0.62212,7.95335 32.51958,0.4077 32.51956,0.40771 0.42451,7.981 0.42452,7.981 h -33.85922 -33.8592 l 0.4302,38.38482 0.43018,38.38481 h 29.49339 c 27.66473,0 29.84995,-0.20652 35.24415,-3.33087 7.02648,-4.06976 13.12323,-11.37888 17.32139,-20.76582 2.66443,-5.9576 3.78954,-7.06721 7.16586,-7.06721 2.20285,0 4.32921,0.56751 4.72525,1.26112 1.13252,1.98347 -8.09265,29.60325 -11.73899,35.1461 -6.73297,10.23482 -9.16343,10.64799 -62.85558,10.6853 l -48.05801,0.0334 z m 334.5652,-2.39042 V 70.127022 l -12.99114,0.009 c -7.14512,0.005 -15.2989,0.7023 -18.11953,1.55033 -6.60887,1.98694 -14.58969,11.53878 -16.71839,20.0094 -0.90605,3.60542 -1.87138,7.41043 -2.14513,8.455558 -0.27377,1.04513 -2.5086,1.90024 -4.96628,1.90024 h -4.46854 l 0.9399,-15.524138 c 1.14351,-18.88724 3.56284,-25.08856 11.42013,-29.2726 5.32592,-2.83608 8.84647,-2.99403 67.76227,-3.04038 l 62.1445,-0.0489 0.002,7.98101 0.002,7.98042 h -26.6845 -26.68449 v 88.931148 88.93115 h -14.74685 -14.7467 z M 256.02504,-14.225288 c -26.70798,-4.54846 -46.94605,-15.94079 -67.57551,-38.03935 -12.8231,-13.73627 -14.90129,-16.77102 -21.34092,-31.16391 -11.31003,-25.278372 -15.00976,-47.448412 -12.83227,-76.895562 1.54548,-20.90029 4.29219,-31.41701 13.61728,-52.1385 6.9226,-15.38288 9.21995,-18.87384 20.57535,-31.2656 24.54081,-26.78055 49.92174,-37.63774 87.92637,-37.61216 30.02806,0.0202 58.35797,10.12557 73.08966,26.07133 7.71548,8.35133 9.07962,13.38066 10.86206,40.04616 l 1.09679,16.40796 -7.61278,-0.44596 -7.61276,-0.44594 -1.93059,-8.19028 c -8.29228,-35.17909 -37.25817,-54.85241 -74.04746,-50.29225 -35.02881,4.34194 -56.56,35.26875 -62.83773,90.2584 -3.53041,30.92454 1.97004,70.911142 12.87536,93.599992 6.66451,13.86574 19.18251,27.75476 29.95497,33.23571 17.62012,8.96501 44.01425,10.22423 63.37451,3.0235 l 9.83113,-3.65654 0.72654,-38.70421 c 0.67862,-36.152362 0.93392,-39.158332 3.87211,-45.591742 7.99566,-17.50714 20.31542,-26.08964 42.66471,-29.72213 7.22032,-1.17354 14.86587,-2.13854 16.9901,-2.14447 3.7361,-0.0111 3.86223,0.25642 3.86223,8.16985 v 8.18057 l -6.02423,1.64193 c -6.56563,1.78949 -11.20755,6.20359 -13.54448,12.87973 -0.92621,2.64601 -1.498,19.92137 -1.498,45.258832 v 40.97934 l -8.57493,5.999 c -26.42784,18.48881 -69.23283,26.7986895 -105.88751,20.5563 z m 246.48047,0.12344 c -53.83099,-10.43416 -91.91931,-60.14395 -95.03903,-124.037252 -3.65557,-74.86721 40.56067,-135.5563 104.38691,-143.27651 27.52499,-3.32932 52.7755,2.94139 74.64893,18.53835 26.03268,18.5627 43.53169,46.12236 51.83451,81.63553 3.74682,16.02604 3.28704,57.86097 -0.8162,74.26654 -11.22853,44.893842 -42.44086,79.715962 -81.15432,90.540032 -14.24118,3.98175 -39.67244,5.08346 -53.8608,2.3333 z m 44.14606,-26.5434 c 15.33359,-7.34176 25.63809,-20.80139 32.74177,-42.76697 6.85909,-21.209272 8.09118,-31.183232 7.98106,-64.608112 -0.0923,-27.99993 -0.398,-31.60471 -3.86736,-45.59277 -10.00912,-40.35557 -27.13184,-61.25078 -52.5039,-64.07164 -40.03567,-4.45113 -65.06706,29.29597 -70.77022,95.41176 -1.74152,20.18931 0.10074,43.31171 5.19311,65.179042 4.7743,20.50155 10.5164,32.28951 21.58717,44.31636 7.73105,8.39869 10.84349,10.65458 18.36916,13.31387 12.03839,4.25394 31.05403,3.70951 41.26921,-1.18154 z m 474.58353,22.06466 c -20.9598,-5.79743 -35.85062,-19.53513 -45.97757,-42.41697 -3.42094,-7.72949 -7.50587,-17.30303 -9.07757,-21.27454 l -2.8578,-7.2209 H 919.6336 875.94512 l -2.16443,5.70071 c -1.19046,3.1354 -7.25059,18.86937 -13.46697,34.96439 l -11.30253,29.26368 h -11.74143 c -6.49289,0 -11.74142,-0.64663 -11.74142,-1.44657 0,-0.79559 2.16302,-6.78134 4.80671,-13.30166 2.64369,-6.52031 10.46864,-26.56296 17.38876,-44.53922 21.19975,-55.070102 51.37681,-132.936392 63.92271,-164.940682 l 11.91852,-30.40382 h 10.94175 10.94177 l 14.52504,36.48458 c 7.98879,20.06652 17.57219,44.35156 21.29653,53.96677 42.44487,109.580962 45.24257,116.280662 54.39637,130.257102 6.9107,10.55163 10.8677,14.00773 20.5423,17.94197 6.5181,2.65064 6.671,2.86098 6.671,9.1699 0,5.38312 -0.5255,6.62517 -3.1599,7.46811 -6.6254,2.11991 -31.2466,2.3292 -38.4848,0.32713 z m -66.49762,-94.340662 c 0,-1.18007 -2.2604,-7.8499 -5.0231,-14.82186 -4.45794,-11.24999 -10.90087,-28.79456 -23.77566,-64.74281 -2.17101,-6.06176 -4.32145,-11.01364 -4.77874,-11.00417 -0.82993,0.0172 -33.49712,84.14269 -34.85274,89.75381 -0.69454,2.87481 0.2867,2.96061 33.85748,2.96061 28.83031,0 34.57276,-0.35637 34.57276,-2.14558 z m -230.32933,-22.17747 v -115.53449 h -11.6829 c -6.44008,0 -14.95743,1.05258 -18.97981,2.34555 -12.84246,4.12809 -21.94318,15.91297 -23.92213,30.97771 l -0.91453,6.96179 -8.28434,0.46304 -8.28432,0.46303 0.89826,-19.46542 c 0.49401,-10.70597 1.61121,-22.20176 2.48263,-25.54618 1.9834,-7.61208 10.14677,-16.23478 17.68407,-18.67911 4.17637,-1.3544 27.73314,-1.84346 88.79404,-1.84346 h 83.10964 l -0.41019,11.61046 -0.41019,11.61045 -35.11118,0.61212 -35.11118,0.61212 -0.35989,115.47345 -0.35987,115.473442 H 748.9772 724.40815 Z"
       id="path1" />
  </g>
</svg>
